<?xml version="1.0" encoding="utf-8" ?><svg xmlns="http://www.w3.org/2000/svg" xmlns:xlink="http://www.w3.org/1999/xlink" width="512" height="512" viewBox="0 0 512 512"><path fill="#386641" d="M95.4198 216.417C97.2939 216.573 120.14 239.15 120.726 241.091C121.286 242.945 118.827 244.403 117.302 244.494C114.952 244.634 101.202 230.015 98.7346 227.692C98.7827 230.5 98.7587 233.313 98.7534 236.121L98.7244 258.422C98.7097 273.926 97.6408 284.185 109.792 296.631C125.298 312.513 142.411 309.586 162.169 309.706C176.888 309.796 172.739 309.174 183.354 319.552C186.888 323.008 201.601 336.153 202.785 340.416C204.06 345.002 203.375 350.967 203.368 355.736L203.273 378.793C203.184 392.062 219.355 406.846 231.636 409.861C239.874 411.884 250.022 411.182 258.634 411.181L288.362 411.174C285.798 406.927 279.3 401.238 275.619 397.621C266.681 388.837 272.031 385.705 276.304 389.409C279.873 392.501 300.5 411.255 299.033 415.235C298.153 417.621 278.058 438.41 273.757 440.533C264.222 436.366 284.006 423.668 288.362 417.357L257.157 417.357C233.774 417.401 219.356 418.568 203.364 396.617C203.963 403.04 203.48 413.228 203.38 419.962C203.001 445.592 204.663 450.94 176.326 450.872L64.6102 450.922C47.6646 450.898 48.8401 436.094 48.8632 423.793L48.8045 324.316C48.6507 312.419 58.3434 309.545 68.1919 309.659L79.2555 309.716C91.114 309.724 104.576 309.355 116.301 309.698C93.023 294.082 92.517 283.324 92.6559 256.32C92.7038 247.006 92.5506 237.14 92.6641 227.692C87.4147 231.107 81.6162 239.277 76.4681 243.401C72.5111 246.571 69.0033 242.259 72.0363 238.965C73.7073 237.151 75.5965 235.43 77.337 233.676L87.7553 223.263C89.9855 221.062 92.8212 217.989 95.4198 216.417ZM167.333 322.007C172.002 326.151 187.379 340.763 190.788 345.238L190.794 425.049C190.798 429.385 192.808 438.227 186.555 438.528C181.112 438.789 175.59 438.712 170.109 438.707L142.148 438.693C134.895 438.693 56.2254 438.332 55.2894 438.695C59.2943 446.935 64.6383 444.568 72.177 444.541L187.491 444.657C199.624 444.587 197.046 430.485 197.037 422.325L197.027 360.077C197.03 354.488 197.29 346.881 197.029 341.504C193.562 339.146 188.883 334.041 185.729 330.877L170.498 315.84L95.7385 315.843C90.2727 315.843 63.739 315.225 60.681 316.289C58.1036 317.186 56.4425 319.673 55.2894 322.007C57.1118 322.211 63.2837 322.02 65.5855 322.016L87.688 322C113.974 321.999 141.097 321.656 167.333 322.007Z"/><path fill="#A7C957" fill-opacity="0.80000001" d="M55.2894 322.007C57.1118 322.211 63.2837 322.02 65.5855 322.016L87.688 322C113.974 321.999 141.097 321.656 167.333 322.007C172.002 326.151 187.379 340.763 190.788 345.238L190.794 425.049C190.798 429.385 192.808 438.227 186.555 438.528C181.112 438.789 175.59 438.712 170.109 438.707L142.148 438.693C134.895 438.693 56.2254 438.332 55.2894 438.695C55.1455 437.806 55.2748 427.531 55.2769 425.962L55.2734 330.236C55.254 327.859 55.0541 324.225 55.2894 322.007Z"/><path fill="#386641" d="M320.885 61.2562C321.093 61.2442 321.301 61.2323 321.509 61.2203L436.809 61.2493C458.421 61.2514 463.467 61.6575 463.474 84.9222L463.665 187.469C463.776 199.748 452.458 201.956 442.774 201.905L394.57 201.893C418.641 216.949 418.778 231.89 418.772 257.31L418.761 284.512C423.417 280.257 429.982 272.988 434.518 268.265C435.163 267.722 436.014 267.111 436.698 266.589C441.918 268.471 440.701 270.85 437.622 274.157C434.647 277.353 417.398 298.212 413.342 294.393C405.932 287.414 399.201 279.634 392.1 272.326C389.413 269.804 393.751 265.512 395.998 267.638C401.57 272.908 406.94 279.461 412.644 284.512C412.875 271.509 413.871 245.021 411.319 233.454C405.658 207.797 383.604 202.401 361.249 202.485L343.712 202.515C330.81 202.492 330.62 199.808 322.216 190.777C306.935 174.356 309.176 180.598 309.233 157.753L309.259 90.6905C309.266 79.1577 305.757 64.3612 320.885 61.2562ZM330.266 189.527C331.898 191.461 334.156 194.124 336.265 195.505L409.248 195.513C416.112 195.514 448.425 196.182 452.608 194.7C459.681 192.193 457.272 173.912 457.27 167.639L457.259 93.5613C457.276 64.3791 458.391 67.6241 431.285 67.669L323.224 67.6298C318.729 67.6373 316.754 69.5497 315.514 73.7536L315.488 161.431C315.359 177.545 317.986 179.115 330.266 189.527Z"/><path fill="#6A994E" fill-opacity="0.80000001" d="M315.514 73.7536L447.039 73.7276C453.079 73.7782 450.811 88.7577 450.811 93.5864L450.788 183.185C450.727 192.143 444.526 189.545 436.878 189.531L349.936 189.532C347.247 189.533 331.834 189.112 330.266 189.527C317.986 179.115 315.359 177.545 315.488 161.431L315.514 73.7536ZM371.739 91.7405C364.037 89.1486 360.81 93.2276 355.358 98.6892C349.026 105.033 346.488 106.401 351.154 114.759C339.625 118.436 340.519 140.882 351.154 144.348C349.913 146.183 349.457 146.98 348.887 149.216C350.527 156.209 361.657 169.575 370.747 165.671C375.453 172.829 381.555 171.563 389.193 171.531C396.562 171.589 398.906 171.721 400.46 163.756C401.999 165.388 402.644 166.142 404.63 167.275C411.489 165.118 428.069 152.857 421.809 144.348C430.979 141.451 429.698 126.576 427.601 119.397C426.601 115.973 423.507 115.386 420.505 114.759C423.787 109.477 423.924 106.097 419.202 101.429C413.699 95.9873 408.317 88.6679 399.745 91.7405C395.242 85.1945 393.098 85.8699 385.731 85.9072C379.418 85.9954 375.428 85.557 371.739 91.7405Z"/><path fill="#386641" d="M379.777 91.7405C388.689 91.7735 395.274 88.7407 394.57 99.8419C395.974 100.141 397.197 100.765 398.478 101.379C403.799 94.8098 404.387 95.5975 410.42 101.12C413.312 103.767 415.581 106.05 418.133 109.068C416.176 111.135 414.965 112.55 413.213 114.759C414.188 116.597 414.702 118.241 415.296 120.218C424.584 120.826 423.352 122.405 423.038 131.607C422.793 138.808 421.896 138.638 415.296 138.486C414.503 139.866 413.868 141.373 413.213 142.827C415.348 144.373 416.85 146.44 418.133 148.706C416.009 152.793 412.185 155.908 408.86 158.962C404.631 162.845 403.203 159.282 399.745 156.572C398.112 157.203 396.72 158.12 395.223 159.027C395.332 161.698 395.493 164.117 392.971 165.671C380.285 166.323 375.865 168.576 376.494 157.206L373.329 156.572C369.771 159.594 368.453 163.425 363.821 159.038C360.616 156.003 356.652 153.094 354.399 149.216C355.491 147.324 357.834 144.791 359.247 142.827C358.581 141.447 357.976 139.912 357.382 138.486C355.197 138.561 352.564 138.907 350.673 137.95C349.275 136.468 349.277 122.442 350.596 121.056C352.595 120.024 355.094 120.238 357.382 120.218C357.89 118.461 358.63 116.505 359.247 114.759C357.215 113.106 355.523 110.922 354.399 108.558C355.833 106.455 357.935 104.496 359.838 102.798C366.771 96.6123 366.18 94.86 373.329 101.379C374.372 100.849 375.438 100.348 376.494 99.8419C376.755 96.7117 376.341 92.8694 379.777 91.7405ZM404.63 114.164C404.929 112.784 407.337 111.692 408.669 108.558C407.315 106.189 406.715 105.789 404.63 104.109C403.563 105.617 401.78 107.808 400.46 109.068C397.793 107.654 390.414 105.102 389.193 104.109C385.708 104.832 385.985 105.878 385.731 109.068C392.659 111.032 395.226 111.745 400.46 116.474L400.803 116.385L401.066 115.97C402.375 115.575 403.113 114.664 404.485 114.654L404.63 114.164ZM416.535 127.335C416.301 129.625 412.26 132.157 416.535 132.492C416.581 130.696 416.591 129.129 416.535 127.335Z"/><path fill="#6A994E" fill-opacity="0.80000001" d="M382.994 98.0225C385.162 97.9323 387.02 97.9657 389.193 98.0225C388.908 100.646 388.947 101.537 389.193 104.109C385.708 104.832 385.985 105.878 385.731 109.068C392.659 111.032 395.226 111.745 400.46 116.474L400.803 116.385L401.066 115.97C402.375 115.575 403.113 114.664 404.485 114.654L404.63 114.164C408.126 117.911 409.254 121.096 410.256 126.132C411.828 126.235 415.662 126 416.546 126.636L416.535 127.335C416.301 129.625 412.26 132.157 416.535 132.492C414.35 132.663 412.407 132.398 410.256 132.492C408.632 137.521 408.076 138.281 405.545 142.827C407.281 145.71 407.84 146.387 410.256 148.706C408.355 150.206 407.276 151.223 405.545 152.937C403.877 151.063 402.541 149.497 400.46 148.067C397.288 150.205 395.488 151.347 391.758 152.287L389.193 152.937L389.193 159.027C387.139 159.093 385.052 159.048 382.994 159.027C382.905 156.67 382.939 154.634 382.994 152.287C379.636 151.532 377.255 151.28 374.488 149.216C373.285 148.854 372.881 148.638 371.739 148.067C370.176 149.893 368.82 151.369 366.996 152.937C365.155 151.505 364.401 150.885 362.739 149.216L366.996 144.348C365.485 139.83 363.522 137.508 362.739 132.492L355.9 132.492C355.757 130.199 355.82 128.412 355.9 126.132C358.194 126.16 360.447 126.15 362.739 126.132C363.165 121.713 365.204 118.254 366.996 114.164C365.669 111.723 364.593 110.618 362.739 108.558L366.996 104.109C369.021 106.323 371.151 109.99 374.488 108.558C376.563 106.771 380.295 105.901 382.994 104.982C383.061 102.519 383.077 100.495 382.994 98.0225Z"/><path fill="#A7C957" fill-opacity="0.80000001" d="M366.996 104.109C369.021 106.323 371.151 109.99 374.488 108.558C374.835 110.176 374.517 113.72 374.51 115.567L374.499 142.208C374.503 143.592 374.642 148.07 374.488 149.216C373.285 148.854 372.881 148.638 371.739 148.067C370.176 149.893 368.82 151.369 366.996 152.937C365.155 151.505 364.401 150.885 362.739 149.216L366.996 144.348C365.485 139.83 363.522 137.508 362.739 132.492L355.9 132.492C355.757 130.199 355.82 128.412 355.9 126.132C358.194 126.16 360.447 126.15 362.739 126.132C363.165 121.713 365.204 118.254 366.996 114.164C365.669 111.723 364.593 110.618 362.739 108.558L366.996 104.109Z"/><path fill="#E9FF91" fill-opacity="0.80000001" d="M404.63 114.164C408.126 117.911 409.254 121.096 410.256 126.132C411.828 126.235 415.662 126 416.546 126.636L416.535 127.335C416.301 129.625 412.26 132.157 416.535 132.492C414.35 132.663 412.407 132.398 410.256 132.492C408.632 137.521 408.076 138.281 405.545 142.827C407.281 145.71 407.84 146.387 410.256 148.706C408.355 150.206 407.276 151.223 405.545 152.937C403.877 151.063 402.541 149.497 400.46 148.067C397.288 150.205 395.488 151.347 391.758 152.287C391.686 150.402 391.583 148.756 391.758 146.874C405.137 140.018 407.18 128.652 400.46 116.474L400.803 116.385L401.066 115.97C402.375 115.575 403.113 114.664 404.485 114.654L404.63 114.164Z"/><path fill="#386641" d="M341.682 309.698L437.451 309.686C454.863 309.678 463.298 312.302 463.478 331.372L463.487 423.754C463.478 442.516 462.73 451.109 441.768 450.892L431.625 450.859L334.441 450.872C312.332 450.904 309.244 451.984 309.232 427.533L309.23 361.914C309.232 355.223 309.117 348.45 309.437 341.679C309.871 332.518 331.678 311.506 341.682 309.698ZM315.514 438.695C317.244 446.747 328.474 444.559 335.236 444.542L420.505 444.533L438.198 444.559C460.802 444.58 457.081 438.106 457.084 418.383L457.081 350.18C457.082 342.836 457.065 335.472 456.977 328.179C456.804 313.681 443.22 315.84 432.939 315.835L369.082 315.829C364.66 315.831 340.982 314.8 337.891 317.379C332.997 321.463 317.704 335.127 316.35 340.478C315.007 342.927 315.512 370.793 315.513 375.832L315.514 438.695Z"/><path fill="#6A994E" fill-opacity="0.80000001" d="M333.935 322.007C343.144 322.64 352.557 322.005 361.803 322.002L435.841 322.001C443.209 322.008 451.255 319.783 451.009 328.75C450.831 335.199 450.806 341.658 450.803 348.109L450.805 423.385C450.858 439.155 453.156 438.721 437.618 438.706L420.505 438.695L420.505 444.533L335.236 444.542C328.474 444.559 317.244 446.747 315.514 438.695L315.513 375.832C315.512 370.793 315.007 342.927 316.35 340.478C321.406 336.415 327.163 326.701 333.935 322.007ZM425.108 346.84C424.726 345.684 424.304 344.808 423.801 343.708C421.731 341.676 407.986 333.444 404.395 332.445C402.594 331.944 399.995 334.772 398.478 336.006C394.669 336.551 387.541 335.903 382.994 336.006L379.777 336.006C372.543 326.788 369.517 328.504 360.351 334.928C356.55 337.591 351.694 339.925 348.887 343.708C345.546 347.888 348.44 351.13 349.738 355.225C349.043 357.889 346.471 362.571 344.789 364.758C331.235 364.684 333.653 370.162 333.452 379.766C332.727 388.669 332.507 394.404 343.566 394.459C345.327 397.522 345.704 398.276 346.7 401.599C342.787 403.652 338.214 406.887 340.806 411.751C342.449 414.833 354.326 427.4 357.373 428.135C361.557 429.145 363.842 425.859 366.996 424.025C368.271 423.988 369.474 423.92 370.747 424.025C370.733 426.365 370.628 429.368 370.747 431.655C373.601 436.095 375.972 436.369 380.888 436.273C385.952 436.173 397.053 437.623 401.012 435.065C405.394 432.239 403.848 428.284 404.101 424.025C412.568 423.357 413.474 433.789 423.344 422.237C433.858 409.932 438.964 412.406 428.274 399.588C429.125 397.381 429.75 395.511 430.454 393.249C438.163 393.248 440.636 391.215 440.368 383.53C439.96 371.806 443.048 362.371 428.274 362.957C426.901 361.169 422.883 354.359 421.809 352.218C422.654 350.455 424.067 348.705 425.108 346.84Z"/><path fill="#6A994E" fill-opacity="0.80000001" d="M315.514 438.695L420.505 438.695L420.505 444.533L335.236 444.542C328.474 444.559 317.244 446.747 315.514 438.695Z"/><path fill="#386641" d="M348.887 343.708C351.694 339.925 356.55 337.591 360.351 334.928C369.517 328.504 372.543 326.788 379.777 336.006L382.994 336.006L381.561 336.546L381.472 336.759C382.029 338.603 381.315 339.594 379.515 340.123C376.595 340.98 374.954 334.432 372.495 334.695L372.247 335.361C374.43 337.464 375.777 339.705 378.076 341.504C383.152 341.698 389.965 341.547 395.223 341.504C396.411 339.643 397.503 337.997 398.478 336.006C399.995 334.772 402.594 331.944 404.395 332.445C407.986 333.444 421.731 341.676 423.801 343.708C424.304 344.808 424.726 345.684 425.108 346.84C424.067 348.705 422.654 350.455 421.809 352.218C420.458 354.095 419.854 355.208 418.761 357.271C421.805 360.246 423.741 364.717 425.108 368.688L433.979 368.688C434.181 372.016 435.128 384.379 434.437 386.84C433.576 387.747 428.535 388.243 426.881 388.559C424.934 394.068 425.213 396.11 421.809 401.599C423.901 403.711 426.231 406.388 428.274 408.612C424.677 413 418.731 418.714 414.653 422.669C412.72 420.424 410.602 418.54 408.669 416.285C405.174 418.123 402.117 419.402 398.478 420.835L398.478 430.17C391.395 430.34 383.632 430.175 376.494 430.17C376.516 427.048 376.535 423.958 376.494 420.835C371.815 419.68 370.321 418.643 366.127 416.285C363.176 418.378 361.716 420.735 359.247 422.669C356.421 420.882 348.059 412.425 345.625 409.589C347.836 407.124 350.819 404.811 353.462 402.813C350.808 398.754 349.391 393.893 348.111 389.244C345.51 389.307 342.247 389.653 339.993 388.405C338.1 386.152 338.209 374.24 339.507 371.437C340.118 370.119 347.377 370.603 348.887 370.679C351.057 364.433 353.421 360.514 357.382 355.225C355.959 353.249 352.413 349.174 353.462 346.84C352.113 344.469 351.898 343.385 348.887 343.708ZM382.994 424.025C385.881 424.066 388.863 424.026 391.758 424.025C391.72 421.48 391.754 418.839 391.758 416.285C388.908 416.284 385.824 416.221 382.994 416.285L382.994 424.025ZM414.653 414.466L420.006 408.612C418.078 406.663 416.344 404.981 414.653 402.813C412.936 404.757 410.596 406.819 408.669 408.612C409.962 409.395 413.433 413.185 414.653 414.466ZM421.353 382.391L428.751 382.391C428.421 379.671 428.365 377.261 428.274 374.528L420.505 374.528C420.748 376.298 421.101 381.11 421.353 382.391ZM360.775 412.588C359.933 411.666 357.258 408.325 356.689 407.933L354.399 409.589C355.906 411.766 357.196 412.777 359.247 414.466C359.737 413.88 360.341 413.197 360.775 412.588ZM414.653 352.218C415.777 349.666 416.399 348.941 418.133 346.84C415.479 345.56 412.811 343.923 410.256 342.43C407.965 342.224 407.281 345.102 407.376 346.84C410.381 348.497 412.279 349.799 414.653 352.218Z"/><path fill="#E9FF91" fill-opacity="0.80000001" d="M348.887 343.708C351.694 339.925 356.55 337.591 360.351 334.928C369.517 328.504 372.543 326.788 379.777 336.006L382.994 336.006L381.561 336.546L381.472 336.759C382.029 338.603 381.315 339.594 379.515 340.123C376.595 340.98 374.954 334.432 372.495 334.695L372.247 335.361C367.823 333.882 357.761 343.924 353.462 346.84C352.113 344.469 351.898 343.385 348.887 343.708Z"/><path fill="#6A994E" fill-opacity="0.80000001" d="M404.63 338.812L410.256 342.43C407.965 342.224 407.281 345.102 407.376 346.84C406.207 347.816 405.15 350.088 404.63 351.535L407.376 353.791C412.376 357.922 416.381 362.288 418.133 368.688C419.496 370.276 419.992 372.512 420.505 374.528C420.748 376.298 421.101 381.11 421.353 382.391C421.533 390.303 417.568 395.991 414.653 402.813C412.936 404.757 410.596 406.819 408.669 408.612C402.615 412.928 399.193 414.741 391.758 416.285C388.908 416.284 385.824 416.221 382.994 416.285C366.232 415.596 354.587 399.404 353.462 383.614C353.592 381.497 353.37 378.826 353.462 376.484C358.039 361.843 358.15 362.65 368.55 352.218C365.168 350.683 366.447 352.851 360.775 349.139C363.853 346.618 367.559 343.959 370.747 341.504C372.794 344.825 373.731 346.369 376.494 349.139C383.77 346.844 391.283 346.451 398.478 349.139C400.653 345.241 401.885 342.467 404.63 338.812Z"/><path fill="#E9FF91" fill-opacity="0.80000001" d="M404.63 338.812L410.256 342.43C407.965 342.224 407.281 345.102 407.376 346.84C406.207 347.816 405.15 350.088 404.63 351.535L407.376 353.791C405.289 353.483 404.904 355.552 405.545 357.271C394.211 350.564 381.411 351.672 368.55 352.218C365.168 350.683 366.447 352.851 360.775 349.139C363.853 346.618 367.559 343.959 370.747 341.504C372.794 344.825 373.731 346.369 376.494 349.139C383.77 346.844 391.283 346.451 398.478 349.139C400.653 345.241 401.885 342.467 404.63 338.812Z"/><path fill="#E9FF91" fill-opacity="0.80000001" d="M405.545 357.271C404.904 355.552 405.289 353.483 407.376 353.791C412.376 357.922 416.381 362.288 418.133 368.688C417.943 368.651 409.083 359.289 405.545 357.271Z"/><path fill="#386641" d="M374.961 376.484C387.818 356.759 410.11 375.648 400.668 390.46C399.346 392.535 397.189 393.892 395.223 395.326C396.073 397.424 387.043 399.554 385.445 399.38C371.857 397.898 369.664 388.272 370.099 376.484C371.233 376.596 373.54 376.431 374.961 376.484Z"/><path fill="#E9FF91" fill-opacity="0.80000001" d="M370.099 376.484C371.233 376.596 373.54 376.431 374.961 376.484C371.704 390.389 381.3 401.2 395.223 395.326C396.073 397.424 387.043 399.554 385.445 399.38C371.857 397.898 369.664 388.272 370.099 376.484Z"/><path fill="#6A994E" fill-opacity="0.80000001" d="M385.731 374.528L386.088 374.846C385.654 382.479 388.864 395.651 379.777 388.559C378.35 387.091 377.271 385.506 376.494 383.614C377.906 377.668 379.816 375.945 385.731 374.528Z"/><path fill="#6A994E" fill-opacity="0.80000001" d="M344.789 376.484C347.844 376.29 350.407 376.391 353.462 376.484C353.37 378.826 353.592 381.497 353.462 383.614C352.268 383.466 346.383 383.614 344.789 383.614L344.789 376.484Z"/><path fill="#386641" d="M59.5863 69.2407C64.5229 68.9629 72.576 69.2364 77.7876 69.2372L188.185 69.2309C197.826 69.5215 203.569 77.9933 203.357 87.0488C203.143 96.1732 203.706 105.658 203.364 114.759C210.87 107.622 222.003 96.2436 233.344 95.5527C251.087 94.4718 269.831 95.4129 287.562 95.0956C283.115 88.938 275.265 83.3216 270.401 77.3476C268.442 74.942 271.576 71.3005 273.993 72.4369C277.085 73.8909 297.921 96.5389 298.535 98.3472C298.327 99.7077 275.962 126.507 271.346 122.794C267.759 119.908 273.215 115.859 275.032 114.054C279.225 109.888 283.689 105.837 287.562 101.379L284.434 101.379L252.537 101.383C229.751 101.339 217.981 103.459 203.364 125.071L203.371 154.238C203.374 159.04 204.195 173.856 200.882 177.371C198.003 180.425 176.913 202.458 174.466 202.354C168.437 202.677 162.303 202.503 156.248 202.501L81.4067 202.497C54.3054 202.506 48.8676 204.955 48.863 174.906L48.8897 81.5651C48.9296 75.2938 53.6371 70.4756 59.5863 69.2407ZM190.788 169.496C187.895 173.342 174.168 187.031 170.498 189.527C166.332 189.786 159.34 189.535 154.939 189.532L78.359 189.534C71.0099 189.536 62.5786 189.742 55.2894 189.527C59.105 198.397 66.7624 196.322 74.8327 196.313L172.556 196.298C178.731 191.376 185.564 183.111 191.934 177.527C196.528 173.5 197.075 171.625 197.025 165.576L197.04 103.731C197.044 97.613 197.107 91.6205 196.821 85.4668C196.228 72.7014 181.786 75.4447 173.049 75.4564L71.0092 75.4627C64.6496 75.4573 55.875 73.3086 55.2894 82.0517L171.872 82.042C190.138 82.0334 190.792 78.603 190.793 97.9856L190.788 169.496Z"/><path fill="#6A994E" fill-opacity="0.80000001" d="M55.2894 82.0517L171.872 82.042C190.138 82.0334 190.792 78.603 190.793 97.9856L190.788 169.496C187.895 173.342 174.168 187.031 170.498 189.527C166.332 189.786 159.34 189.535 154.939 189.532L78.359 189.534C71.0099 189.536 62.5786 189.742 55.2894 189.527C55.1308 186.057 55.2821 181.416 55.2828 177.838L55.2894 82.0517Z"/><path fill="#386641" d="M240.313 170.155L261.19 170.144C279.348 170.159 275.572 169.386 275.492 188.604C281.004 190.168 285.47 192.894 290.542 195.505C294.6 191.975 300.838 182.257 305.548 186.408C307.844 188.431 327.093 206.725 326.937 208.944C326.58 214.02 318.576 218.9 315.514 222.803C317.956 226.918 319.715 231.553 320.885 236.184C344.98 236.299 340.205 233.326 340.243 259.03C340.27 278.137 341.763 275.325 320.885 275.239C319.821 280.004 317.895 284.106 315.514 288.353C318.128 291.578 326.39 299.729 327.227 302.49C326.392 306.147 308.172 323.106 304.535 326.462C299.284 331.306 291.665 319.411 287.562 315.291C283.037 317.482 280.439 318.938 275.492 320.422C275.486 326.771 277.768 339.025 270.232 340.478L251.798 340.507C233.549 340.52 237.596 336.651 237.665 320.422C231.971 318.972 229.816 317.967 224.698 315.291C221.161 318.596 214.331 326.451 210.23 327.252C207.354 326.665 184.402 305.249 185.141 301.974C186.107 297.695 193.995 291.279 197.029 288.353C194.998 283.367 193.112 280.799 191.851 275.239C188.447 275.251 175.418 275.68 172.974 274.666C170.577 272.1 169.657 242.099 172.441 237.158C174.872 235.577 187.987 236.169 191.851 236.184C193.364 231.706 194.623 227.913 197.029 223.805C194.38 221.575 182.111 211.108 184.892 207.664C187.405 204.552 205.543 185.092 208.571 184.747C211.619 185.526 219.588 194.26 221.579 196.298C227.066 192.589 232.146 190.732 238.338 188.604C238.368 183.865 236.799 173.127 240.313 170.155ZM191.851 209.362C195.748 213.713 200.661 218.348 204.803 222.803C202.197 227.434 199.756 232.008 198.252 237.183C195.783 245.678 186.178 242.665 177.91 242.676C177.786 251.35 177.916 260.198 177.91 268.897C183.729 268.822 190.186 269.119 195.853 268.897C196.996 270.952 204.146 287.526 204.803 289.694C201.238 293.476 195.545 298.694 192.569 302.54C196.172 305.271 207.462 316.635 210.795 320.422C213.905 316.554 219.91 310.483 223.859 307.433C228.378 310.145 233.191 312.458 238.261 313.882C246.977 316.329 244.274 325.558 244.247 334.033L263.567 334.033L269.21 334.033C269.307 327.86 269.171 321.502 269.21 315.291C274.916 313.985 279.241 312.399 284.434 309.698C285.962 308.259 286.359 308.05 288.362 307.433C290.644 309.487 299.802 318.161 300.903 320.422C303.107 320.323 316.747 305.133 319.49 302.54C315.346 298.659 311.152 293.952 307.367 289.694C312.429 281.303 313.684 277.532 316.35 268.265L327.044 268.265C329.143 268.316 331.434 268.267 333.549 268.265C333.693 259.881 333.553 251.093 333.549 242.676C327.698 242.241 321.362 242.423 315.514 242.676C314.287 234.221 311.401 228.92 307.367 221.592C310.997 217.68 315.655 213.15 319.49 209.362C315.873 204.888 307.164 196.528 302.724 192.416C301.691 193.724 300.309 195.084 299.134 196.298C296.805 198.567 293.215 202.44 290.542 203.937C282.778 197.837 278.681 196.332 269.21 193.771L269.21 182.308C269.357 180.287 269.288 178.764 269.21 176.73L244.788 176.73C244.796 179.931 245.189 190.93 244.374 193.039C240.738 196.358 225.735 197.847 221.579 204.923C217.689 201.907 212.124 196.05 208.512 192.416C206.958 194.102 206.154 195.132 204.803 196.999C200.491 200.152 195.657 205.425 191.851 209.362Z"/><path fill="#6A994E" fill-opacity="0.80000001" d="M244.788 176.73L269.21 176.73C269.288 178.764 269.357 180.287 269.21 182.308C267.686 182.302 265.848 182.247 264.352 182.308L264.352 199.375C272.474 199.989 279.719 204.266 286.544 208.428C287.744 206.736 288.783 205.078 290.542 203.937C293.215 202.44 296.805 198.567 299.134 196.298C302.207 199.802 308.755 207.132 312.641 209.362C309.049 214.38 303.464 218.079 300.903 222.803C305.806 231.973 309.926 236.512 310.904 247.751C315.707 247.32 322.002 247.81 327.044 247.751C327.056 253.753 327.294 261.332 327.044 267.234L323.365 267.234C324.215 268.348 326.244 267.544 327.044 268.265L316.35 268.265L316.35 267.234C312.368 267.796 310.562 267.416 309.422 271.729C307.767 277.991 304.037 282.806 301.308 288.353L301.541 288.665C306.076 294.79 307.603 301.31 314.25 305.222C311.651 308.065 301.888 317.332 300.903 320.422C299.802 318.161 290.644 309.487 288.362 307.433C286.359 308.05 285.962 308.259 284.434 309.698C281.032 309.66 270.743 315.431 263.567 315.84C263.579 321.822 263.677 328.073 263.567 334.033L244.247 334.033C244.274 325.558 246.977 316.329 238.261 313.882C233.191 312.458 228.378 310.145 223.859 307.433C219.91 310.483 213.905 316.554 210.795 320.422C207.462 316.635 196.172 305.271 192.569 302.54C195.545 298.694 201.238 293.476 204.803 289.694C204.146 287.526 196.996 270.952 195.853 268.897C190.186 269.119 183.729 268.822 177.91 268.897C177.916 260.198 177.786 251.35 177.91 242.676C186.178 242.665 195.783 245.678 198.252 237.183C199.756 232.008 202.197 227.434 204.803 222.803C200.661 218.348 195.748 213.713 191.851 209.362C195.657 205.425 200.491 200.152 204.803 196.999C208.772 201.152 212.962 205.307 217.041 209.362C218.113 208.291 220.765 205.883 221.579 204.923C225.735 197.847 240.738 196.358 244.374 193.039C245.189 190.93 244.796 179.931 244.788 176.73ZM259.107 284.328C275.15 282.728 286.844 268.402 285.196 252.363C283.549 236.324 269.187 224.673 253.153 226.369C237.187 228.057 225.597 242.345 227.237 258.316C228.878 274.287 243.131 285.92 259.107 284.328ZM240.029 223.724C236.624 223.446 229.526 228.526 226.932 230.697C203.689 250.148 218.829 292.382 251.44 294.71C255.889 295.049 259.586 292.854 263.196 290.674L263.464 290.228C246.051 293.783 228.683 283.948 222.776 267.185C216.869 250.422 224.233 231.871 240.029 223.724Z"/><path fill="#E9FF91" fill-opacity="0.80000001" d="M316.35 267.234C318.571 267.144 321.119 267.219 323.365 267.234C324.215 268.348 326.244 267.544 327.044 268.265L316.35 268.265L316.35 267.234Z"/><path fill="#386641" d="M240.029 223.724C252.372 217.358 267.29 218.752 278.239 227.295C289.188 235.839 294.168 249.97 290.994 263.491C287.82 277.011 277.071 287.45 263.464 290.228C246.051 293.783 228.683 283.948 222.776 267.185C216.869 250.422 224.233 231.871 240.029 223.724ZM259.107 284.328C275.15 282.728 286.844 268.402 285.196 252.363C283.549 236.324 269.187 224.673 253.153 226.369C237.187 228.057 225.597 242.345 227.237 258.316C228.878 274.287 243.131 285.92 259.107 284.328Z"/></svg>