<?xml version="1.0" encoding="utf-8" ?><svg xmlns="http://www.w3.org/2000/svg" xmlns:xlink="http://www.w3.org/1999/xlink" width="512" height="512" viewBox="0 0 512 512"><path fill="#386641" d="M247.473 109.738C360.908 105.485 416.997 238.816 335.723 314.726C319.264 330.099 307.008 328.564 305.35 358.128C315.608 358.263 323.037 354.584 323.148 366.278L323.16 402.292C323.175 426.926 323.266 440.873 295.263 440.752C292.568 460.262 282.952 463.627 265.559 463.423L249.734 463.448C232.206 463.468 219.85 461.108 218.198 440.752C193.127 440.86 188.56 435.349 188.578 410.462L188.553 372.402C188.463 355.021 188.803 358.069 206.13 358.128C204.35 329.204 198.21 331.146 179.2 314.723C107.093 252.425 135.277 137.808 226.401 113.302C233.838 111.302 240.028 111.029 247.473 109.738ZM245.12 172.214C248.116 186.568 246.758 185.952 232.533 189.899C227.83 191.204 228.337 179.787 222.588 180.712C214.003 182.093 209.057 188.55 206.13 196.201C208.38 197.277 213.764 200.201 214.559 202.976C215.821 207.381 211.634 217.886 207.233 219.679C205.93 220.21 201.699 218.807 199.89 218.483C192.646 223.229 191.388 234.854 196.123 241.883C203.144 252.307 213.631 250.381 224.527 250.371L256.47 250.365L288.503 250.373C293.618 250.373 300.812 251.107 305.658 249.888C319.758 246.341 322.113 229.901 312.829 219.307C310.325 216.449 300.898 226.619 297.327 205.611C296.476 200.6 301.501 197.795 305.35 196.201C302.997 191.313 294.626 176.067 287.35 180.258C283.323 182.577 284.83 190.81 277.659 188.743C267.026 185.676 261.965 184.266 266.806 172.214C262.571 170.747 259.092 170.064 254.549 170.501C250.992 170.606 248.492 170.916 245.12 172.214ZM218.198 395.918C214.131 400.702 202.838 398.672 196.556 398.756L196.531 411.972C196.493 421.188 195.877 431.519 208.332 432.531C199.172 425.46 202.408 414.492 202.059 403.821C207.768 403.764 213.859 404.051 219.479 403.821C222.931 400.684 222.536 397.733 218.198 395.918ZM282.174 273.342C284.673 273.286 297.927 272.102 291.322 280.913C290.607 281.867 284.079 281.46 282.174 281.408L282.174 358.128C283.761 358.137 285.681 358.197 287.239 358.128C287.729 357.158 286.793 294.489 287.239 286.749L288.623 286.803C300.543 287.26 303.661 267.733 287.239 268.07C287.102 265.047 287.075 261.762 287.239 258.749L282.174 258.749L282.174 273.342ZM302.695 432.531C318.441 430.725 315.024 410.306 314.996 398.756L295.263 398.756C294.91 406.668 302.485 403.583 308.887 403.821C308.929 418.067 311.591 421.724 302.695 432.531ZM305.913 205.083C306.747 207.384 307.802 209.081 308.887 211.234C311.29 210.157 311.576 209.965 314.252 210.27C314.414 209.456 313.95 208.282 313.704 207.389C317.014 204.068 320.05 199.04 313.704 196.963C311.972 201.909 310.539 202.789 305.913 205.083ZM269.671 303.755L269.671 358.128L274.023 358.128L274.023 281.408C272.677 282.781 271.937 285.355 269.671 287.943L269.714 297.864C269.734 299.313 269.888 302.449 269.671 303.755ZM228.379 173.469C231.236 174.734 232.868 177.246 234.53 179.742C235.711 179.769 236.864 179.754 238.043 179.742C237.675 176.669 237.115 173.558 236.606 170.501C235.926 169.975 232.359 170.396 231.243 170.501C230.17 171.467 229.188 172.262 228.379 173.469ZM274.972 171.039C274.466 173.651 273.819 175.829 273.082 178.373C274.55 178.833 276.121 179.359 277.598 179.742C279.337 176.706 280.249 174.749 283.674 173.469C280.756 170.676 279.014 171.162 274.972 171.039ZM226.299 358.128C227.938 358.213 229.6 358.156 231.243 358.128L231.243 281.408C229.52 281.534 228.022 281.463 226.299 281.408C227.345 306.467 225.895 332.864 226.299 358.128ZM213.977 358.128C215.769 358.125 217.701 358.083 219.479 358.128C218.883 345.941 217.016 332.33 207.011 323.993C205.568 322.79 200.223 318.851 198.616 318.767C209.861 329.478 214.033 342.786 213.977 358.128ZM198.616 209.038C200.403 209.558 202.556 210.513 204.312 211.234C204.862 209.527 205.518 207.786 206.13 206.094C203.479 204.322 201.111 202.54 198.616 200.569C197.619 202.355 197.281 203.159 196.556 205.083C197.109 206.126 198.187 208.023 198.616 209.038ZM292.578 358.128C293.937 358.115 296.227 358.028 297.509 358.128C297.372 343.078 302.82 329.639 314.856 320.147C319.89 316.562 324.861 313.88 329.52 309.68C388.608 256.413 372.893 158.263 300.03 126.729C210.771 88.099 119.104 177.968 153.398 264.144C152.974 252.343 149.643 242.656 150.253 228.524C152.749 170.615 198.466 121.468 257.834 122.072C276.109 122.258 305.456 130.195 318.742 144.023C324.284 145.199 340.226 164.882 343.694 170.253C371.284 212.971 363.997 271.858 325.677 305.71C320.994 309.847 315.947 312.716 310.973 316.417C297.575 327.317 292.143 341.256 292.578 358.128ZM226.299 440.752C226.921 448.668 230.724 452.932 238.043 455.243C234.985 450.616 233.389 452.328 232.892 444.722C240.428 444.716 270.08 444.665 279.64 444.8C282.501 447.563 273.868 453.951 271.965 455.243C282.786 454.399 284.905 450.488 287.239 440.752L226.299 440.752Z"/><path fill="#A7C957" fill-opacity="0.80000001" d="M153.398 264.144C152.974 252.343 149.643 242.656 150.253 228.524C152.749 170.615 198.466 121.468 257.834 122.072C276.109 122.258 305.456 130.195 318.742 144.023C324.284 145.199 340.226 164.882 343.694 170.253C371.284 212.971 363.997 271.858 325.677 305.71C320.994 309.847 315.947 312.716 310.973 316.417C297.575 327.317 292.143 341.256 292.578 358.128C293.937 358.115 296.227 358.028 297.509 358.128C294.183 358.298 290.587 358.179 287.239 358.128C287.729 357.158 286.793 294.489 287.239 286.749L288.623 286.803C300.543 287.26 303.661 267.733 287.239 268.07C287.102 265.047 287.075 261.762 287.239 258.749C294.204 258.771 303.792 259.42 310.191 257.071C332.008 249.061 329.937 217.259 314.252 210.27C314.414 209.456 313.95 208.282 313.704 207.389C317.014 204.068 320.05 199.04 313.704 196.963C312.049 193.187 311.252 189.125 309.063 185.515C304.214 177.517 293.38 167.763 283.674 173.469C280.756 170.676 279.014 171.162 274.972 171.039C275.514 158.278 245.08 161.932 238.043 166.202C237.067 167.876 236.818 168.58 236.606 170.501C235.926 169.975 232.359 170.396 231.243 170.501C230.17 171.467 229.188 172.262 228.379 173.469C212.354 168.615 192.973 190.602 198.616 200.569C197.619 202.355 197.281 203.159 196.556 205.083C197.109 206.126 198.187 208.023 198.616 209.038C180.355 218.089 180.777 250.088 202.946 257.309C209.409 259.414 219.154 258.768 226.299 258.749L231.243 258.749L231.243 273.342L226.299 273.342C224.056 273.287 218.457 272.934 217.509 274.377C211.373 283.713 226.604 281.249 231.243 281.408C229.52 281.534 228.022 281.463 226.299 281.408C227.345 306.467 225.895 332.864 226.299 358.128C224.851 357.977 221.094 358.114 219.479 358.128C218.883 345.941 217.016 332.33 207.011 323.993C205.568 322.79 200.223 318.851 198.616 318.767C196.4 317.715 192.887 314.819 190.942 313.22C179.587 310.24 156.137 274.882 153.398 264.144Z"/><path fill="#6A994E" fill-opacity="0.80000001" d="M153.398 264.144C152.974 252.343 149.643 242.656 150.253 228.524C152.749 170.615 198.466 121.468 257.834 122.072C276.109 122.258 305.456 130.195 318.742 144.023L318.325 143.826C316.633 143.005 314.862 141.79 313.137 140.905C212.288 89.2057 108.47 217.574 182.005 303.522C184.017 305.874 189.856 310.919 190.942 313.22C179.587 310.24 156.137 274.882 153.398 264.144Z"/><path fill="#E9FF90" fill-opacity="0.80000001" d="M226.299 258.749L231.243 258.749L231.243 273.342L226.299 273.342L226.299 258.749Z"/><path fill="#C8A562" fill-opacity="0.80000001" d="M251.762 176.239L259.111 176.239C258.199 185.285 261.289 189.784 269.933 192.641C281.497 196.462 286.011 196.67 289.907 184.98C293.31 187.546 295.635 189.594 297.509 193.422C294.068 198.466 290.145 200.157 291.823 207.873C293.995 217.866 298.1 227.529 309.577 225.033C314.645 229.45 313.37 237.06 309.133 241.556C304.922 246.023 295.804 244.513 289.987 244.511L260.313 244.495L227.312 244.499C221.696 244.502 216.126 244.586 210.475 244.478C199.654 244.269 197.321 233.291 201.266 225.033C213.44 228.003 220.922 215.494 220.892 205.229C220.876 200.108 217.375 196.715 213.977 193.422C216.282 190.19 218.481 188.323 222.028 186.632C227.539 197.393 229.699 197.057 240.625 193.594C251.973 189.997 252.871 187.35 251.762 176.239Z"/><path fill="#6A994E" fill-opacity="0.80000001" d="M196.556 366.432L314.996 366.432L314.996 390.319C313.005 390.274 310.888 390.315 308.887 390.319C305.186 390.296 282.172 389.938 295.263 398.756C294.91 406.668 302.485 403.583 308.887 403.821C308.929 418.067 311.591 421.724 302.695 432.531C271.559 432.912 239.54 432.53 208.332 432.531C199.172 425.46 202.408 414.492 202.059 403.821C207.768 403.764 213.859 404.051 219.479 403.821C222.931 400.684 222.536 397.733 218.198 395.918C217.53 388.193 208.274 390.289 202.059 390.319C200.142 390.39 198.476 390.367 196.556 390.319L196.556 366.432Z"/><path fill="#E9FF90" fill-opacity="0.80000001" d="M196.556 366.432L314.996 366.432L314.996 390.319C313.005 390.274 310.888 390.315 308.887 390.319L308.887 371.769L202.059 371.769L202.059 390.319C200.142 390.39 198.476 390.367 196.556 390.319L196.556 366.432Z"/><path fill="#A7C957" fill-opacity="0.80000001" d="M239.326 281.408L274.023 281.408C272.677 282.781 271.937 285.355 269.671 287.943L269.714 297.864C269.734 299.313 269.888 302.449 269.671 303.755L269.671 358.128C259.628 358.124 249.337 358.276 239.326 358.128L239.326 286.749C239.388 285.035 239.338 283.138 239.326 281.408Z"/><path fill="#E9FF90" fill-opacity="0.80000001" d="M239.326 281.408L274.023 281.408C272.677 282.781 271.937 285.355 269.671 287.943L269.714 297.864C269.734 299.313 269.888 302.449 269.671 303.755C269.533 302.421 269.626 299.482 269.631 298.005L269.671 286.749C260.528 287.106 248.711 286.745 239.326 286.749C239.388 285.035 239.338 283.138 239.326 281.408Z"/><path fill="#E9FF90" fill-opacity="0.80000001" d="M240.541 258.749L274.023 258.749C274.036 260.938 274.285 271.886 273.716 273.212L273.082 273.342L239.326 273.342C239.324 271.32 239.007 259.821 239.62 258.918L240.541 258.749Z"/><path fill="#A7C957" fill-opacity="0.80000001" d="M259.111 264.144L268.982 264.144C268.918 265.104 268.979 267.043 268.982 268.07L253.438 268.07C250.449 268.137 247.222 268.073 244.214 268.07C244.066 266.441 244.11 265.763 244.214 264.144C249.027 264.244 254.268 264.148 259.111 264.144Z"/><path fill="#6A994E" fill-opacity="0.80000001" d="M232.892 444.722C240.428 444.716 270.08 444.665 279.64 444.8C282.501 447.563 273.868 453.951 271.965 455.243L249.724 455.25C246.323 455.257 241.286 455.462 238.043 455.243C234.985 450.616 233.389 452.328 232.892 444.722Z"/><path fill="#386641" d="M246.093 48.2531C274.649 48.1966 269.661 44.5986 269.676 75.0782C269.678 80.1795 271.93 97.6704 266.806 99.2509L250.098 99.2917C248.182 99.2901 244.861 99.3466 243.457 97.9377C241.495 92.9545 242.052 52.7044 242.986 50.5172C243.533 49.2334 244.883 48.7071 246.093 48.2531Z"/><path fill="#A7C957" fill-opacity="0.80000001" d="M251.762 56.3846L261.476 56.3846C261.476 59.911 261.641 90.4079 261.25 91.0259L260.313 91.125L250.625 91.125C250.624 87.598 250.43 57.4411 250.853 56.5302L251.762 56.3846Z"/><path fill="#386641" d="M156.778 307.293C160.759 306.481 173.594 321.872 173.902 323.694C172.736 326.654 166.842 332.006 164.443 334.41L151.708 347.148C149.525 349.331 141.272 357.86 139.52 359.054C133.962 360.14 127.343 349.129 123.012 345.802C117.386 341.481 133.131 329.555 136.328 326.032C140.614 321.995 151.822 308.653 156.778 307.293Z"/><path fill="#A7C957" fill-opacity="0.80000001" d="M156.778 317.147C157.851 317.605 162.758 322.477 163.992 323.599C156.47 330.694 144.693 341.474 138.256 349.333C137.318 349.185 132.449 343.84 131.372 342.727C139.542 334.217 148.352 325.346 156.778 317.147Z"/><path fill="#386641" d="M80.883 210.27C86.2369 210.267 125.781 209.659 127.5 210.859C129.373 212.166 132.588 235.428 126.003 236.461L97.261 236.473C93.7823 236.473 79.306 238.015 77.7779 234.106C76.6739 231.282 74.6056 212.424 80.883 210.27Z"/><path fill="#A7C957" fill-opacity="0.80000001" d="M85.0047 218.483L121.227 218.483L121.227 228.623L97.1052 228.617C93.5675 228.612 88.3056 228.369 85.0047 228.623L85.0047 218.483Z"/><path fill="#386641" d="M354.067 307.293C357.677 306.85 358.524 308.943 360.975 311.441L381.886 332.531C391.042 341.701 392.392 342.343 382.744 350.847C380.186 353.102 377.524 357.539 374.089 358.128C373.264 358.198 371.17 358.307 370.641 357.667C365.16 351.037 340.267 330.013 337.979 323.599C339.431 320.96 351.397 308.652 354.067 307.293Z"/><path fill="#A7C957" fill-opacity="0.80000001" d="M355.112 317.147C359.762 320.618 377.137 338.399 380.19 342.727C377.455 344.816 375.868 346.755 373.626 349.333C371.313 348.079 350.421 326.448 348.26 323.599C350.737 321.524 352.68 319.059 355.112 317.147Z"/><path fill="#386641" d="M138.256 93.0111C138.958 92.9968 141.227 93.1326 141.669 93.5628C145.595 97.3825 176.911 125.54 173.467 129.201C170.461 132.396 161.476 142.895 157.784 144.023C153.278 144.07 124.546 113.903 122.998 110.83C121.526 107.907 136.403 93.9481 138.256 93.0111Z"/><path fill="#A7C957" fill-opacity="0.80000001" d="M139.52 103.176C143.117 105.361 160.566 123.903 163.992 127.555C161.408 129.703 159.895 131.501 157.784 134.06C155.057 132.832 135.928 113.179 133.115 109.738C135.349 107.581 137.527 105.562 139.52 103.176Z"/><path fill="#386641" d="M385.451 211.234L432.215 211.234C436.907 214.524 435.032 227.85 434.921 233.8C433.946 235.118 433.697 235.655 432.215 236.461C423.66 236.788 412.569 236.47 403.778 236.471L392.877 236.479C388.423 236.508 385.643 237.494 382.609 233.8C382.591 228.413 380.865 214.153 385.451 211.234Z"/><path fill="#A7C957" fill-opacity="0.80000001" d="M390.8 218.986L426.802 218.986L426.802 228.623L390.8 228.623L390.8 218.986Z"/><path fill="#386641" d="M372.296 93.0111C376.309 92.8656 384.31 102.841 387.374 105.896C391.832 110.34 384.826 114.448 381.445 117.931L365.032 134.792C361.767 138.161 358.781 142.899 354.067 144.023C351.361 143.643 339.625 131.701 338.302 129.176C336.232 125.222 353.049 111.348 356.099 108.302C359.711 104.696 368.001 94.6537 372.296 93.0111Z"/><path fill="#A7C957" fill-opacity="0.80000001" d="M373.626 103.176C374.092 103.273 378.349 108.413 379.086 109.249C373.961 115.279 360.733 129.008 354.65 134.137L354.067 134.06C351.818 131.904 349.602 129.795 347.435 127.555C354.223 121.399 366.504 107.398 373.626 103.176Z"/></svg>