<?xml version="1.0" encoding="utf-8" ?><svg xmlns="http://www.w3.org/2000/svg" xmlns:xlink="http://www.w3.org/1999/xlink" width="512" height="512" viewBox="0 0 512 512"><path fill="#386641" fill-opacity="0.89803922" d="M96.0187 74.8182L134.831 74.8133C142.239 74.8039 149.661 74.7201 157.064 74.8705C162.624 74.9835 160.741 84.3298 160.737 88.9726L160.726 165.5L181.317 165.5C182.46 158.52 179.941 145.184 182.505 138.744C184.654 137.095 217.32 137.172 218.456 138.401C220.628 140.751 219.282 160.779 219.61 165.022L219.65 165.5L233.915 165.5C233.906 161.331 233.178 140.81 234.815 138.483C237.93 137.107 265.507 137.79 270.973 137.772L294.856 106.717C298.484 102.021 305.542 93.3821 308.239 88.6479C308.124 72.991 306.616 74.8073 323.279 74.809L356.624 74.8237C359.993 74.8072 369.304 74.2528 371.804 76.2511C372.647 77.9637 372.349 98.1155 372.35 101.755L372.347 264.593L445.838 264.569C464.502 264.513 468.053 268.496 467.996 288.784L467.978 369.255L467.985 405.12C467.986 422.718 471.163 434.408 450.062 434.455L81.484 434.464C53.7619 434.463 55.6835 430.482 55.72 405.001L55.7061 362.796C46.6925 358.667 43.345 351.338 43.327 341.634L43.3042 238.909C43.3167 215.868 46.5661 211.888 69.8844 211.939L87.2254 211.964C86.7809 207.738 87.321 199.214 87.5329 194.58L92.0367 96.3929C92.2766 91.4724 90.7554 75.8949 96.0187 74.8182ZM49.1955 323.107C50.5317 323.075 52.7524 322.962 53.991 323.107L53.9851 241.362C53.9703 226.6 53.4886 223.248 70.0601 223.102L271.966 223.116C274.635 223.124 281.427 223.528 283.76 223.11C277.877 216.283 268.766 217.832 260.636 217.842L73.2344 217.845C52.3948 217.839 49.1788 215.767 49.1826 240.103L49.1955 323.107ZM97.6951 211.964C97.4427 207.758 97.7655 202.735 98.0103 198.495L102.145 114.065C102.58 104.552 103.505 95.0771 103.739 85.5213C120.483 85.2986 138.193 85.4409 154.982 85.5213C154.967 84.1035 154.894 82.0977 154.982 80.7384L98.2823 80.7384C98.4998 86.0821 98.0836 91.2143 97.8162 96.5523L94.1725 176.749C93.675 187.593 92.7406 201.264 92.7518 211.964C94.3012 211.959 96.1738 211.903 97.6951 211.964ZM186.997 143.608L186.997 165.5L193.024 165.5L193.024 148.792L213.785 148.792C213.62 146.932 213.631 145.479 213.785 143.608L186.997 143.608ZM68.4177 428.531C68.1898 427.765 66.7268 426.212 66.5805 424.809C65.9543 418.805 66.1929 411.929 66.1967 405.908L66.1874 367.973C70.6258 368.795 79.1877 368.56 84.0933 368.561L112.603 368.548C112.581 366.916 112.581 365.338 112.603 363.706L61.3262 363.706L61.3126 402.338C61.3111 411.085 58.0089 426.677 68.4177 428.531Z"/><path fill="#A7C957" d="M292.68 270.339L439.302 270.325C447.251 270.321 456.885 268.075 461.214 275.747C462.867 279.774 462.254 297.973 462.254 303.335L462.247 420.102C462.219 427.186 457.145 428.478 450.916 428.528L84.5907 428.532C82.708 428.533 69.1928 428.792 68.4177 428.531C68.1898 427.765 66.7268 426.212 66.5805 424.809C65.9543 418.805 66.1929 411.929 66.1967 405.908L66.1874 367.973C70.6258 368.795 79.1877 368.56 84.0933 368.561L112.603 368.548C112.581 366.916 112.581 365.338 112.603 363.706C112.993 366.986 112.639 371.938 112.613 375.355L112.583 396.947C112.578 404.196 110.231 409.613 118.555 409.208C139.405 409.299 136.017 412.354 136.021 390.987L136.014 363.706C144.191 363.358 155.11 363.699 163.493 363.706C163.576 365.542 163.593 366.719 163.493 368.548L163.473 393.122C163.472 399.639 160.852 409.728 168.37 409.208C171.624 409.204 184.268 409.718 186.389 408.574C187.758 405.62 186.751 370.408 186.997 363.706L213.785 363.706L213.785 368.548C214.33 381.096 213.218 394.184 213.895 406.775C214.022 409.128 216.329 409.241 218.075 409.208C240.047 409.257 237.025 412.993 237.031 392.47L237.023 363.706L262.945 363.713C284.328 363.714 292.668 363.747 292.683 339.768L292.68 270.339Z"/><path fill="#E9FF91" fill-opacity="0.80000001" d="M292.68 270.339L439.302 270.325C447.251 270.321 456.885 268.075 461.214 275.747L297.757 275.747L297.763 343.087C297.758 355.649 295.087 368.761 279.518 368.666L241.93 368.548L241.943 396.141C241.958 409.135 245.543 413.384 232.367 413.568C226.219 413.654 218.892 415.917 218.075 409.208C240.047 409.257 237.025 412.993 237.031 392.47L237.023 363.706L262.945 363.713C284.328 363.714 292.668 363.747 292.683 339.768L292.68 270.339Z"/><path fill="#E9FF91" fill-opacity="0.80000001" d="M186.997 363.706L213.785 363.706L213.785 368.548C208.946 369.021 196.808 368.886 191.897 368.548C191.793 375.905 193.213 408.644 190.583 412.888C188.61 414.493 175.039 413.245 171.662 413.572C169.135 413.818 168.662 411.186 168.37 409.208C171.624 409.204 184.268 409.718 186.389 408.574C187.758 405.62 186.751 370.408 186.997 363.706Z"/><path fill="#E9FF91" fill-opacity="0.80000001" d="M136.014 363.706C144.191 363.358 155.11 363.699 163.493 363.706C163.576 365.542 163.593 366.719 163.493 368.548C156.023 368.577 148.46 368.474 141.007 368.548L141.02 395.051C141.02 399.283 142.929 413.126 137.443 413.461C131.825 413.805 119.377 415.902 118.555 409.208C139.405 409.299 136.017 412.354 136.021 390.987L136.014 363.706Z"/><path fill="#386641" fill-opacity="0.89803922" d="M321.699 326.002C319.682 325.536 319.047 324.312 319.047 322.261C319.625 315.693 318.114 299.219 319.536 295.215C321.892 292.556 348.829 293.863 353.93 293.97C357.301 294.04 357.7 295.832 357.603 298.734C358.981 298.742 360.399 298.77 361.774 298.734C361.61 297.393 361.78 295.67 362.841 294.73C364.408 293.341 390.69 293.867 394.574 293.922C397.796 293.968 400.74 294.122 399.978 298.183C401.583 298.328 402.783 298.462 404.372 298.734C404.295 297.102 404.066 294.312 405.953 294.23C410.427 294.035 437.404 293.169 439.822 294.463C440.653 295.63 440.58 296.777 440.511 298.183C448.593 298.478 445.051 310.815 445.169 318.652C445.275 332.926 444.95 330.251 431.113 330.217L407.887 330.207C406.388 329.959 405.717 329.736 404.372 328.986C401.872 331.293 394.058 330.229 390.674 330.228L366.464 330.207C365.508 329 364.736 327.921 363.543 326.941C362.094 328.004 361.245 328.925 359.989 330.207L324.279 330.207C323.166 328.599 322.597 327.727 321.699 326.002Z"/><path fill="#386641" fill-opacity="0.89803922" d="M321.699 326.002C319.682 325.536 319.047 324.312 319.047 322.261C319.625 315.693 318.114 299.219 319.536 295.215C321.892 292.556 348.829 293.863 353.93 293.97C357.301 294.04 357.7 295.832 357.603 298.734C357.466 307.75 357.619 316.965 357.603 326.002L333.71 325.993C329.909 325.988 325.389 325.785 321.699 326.002Z"/><path fill="#E9FF91" fill-opacity="0.80000001" d="M328.262 299.395L352.54 299.395L352.54 303.94L331.437 303.94L328.262 303.94L328.262 320.353L324.279 320.353L324.279 299.395L328.262 299.395Z"/><path fill="#386641" fill-opacity="0.89803922" d="M404.372 298.734C404.295 297.102 404.066 294.312 405.953 294.23C410.427 294.035 437.404 293.169 439.822 294.463C440.653 295.63 440.58 296.777 440.511 298.183C440.432 306.984 440.867 317.421 440.511 326.002C435.776 326.152 408.615 326.792 405 325.409C403.417 323.839 404.477 302.242 404.372 298.734Z"/><path fill="#6A994E" fill-opacity="0.80000001" d="M409.754 299.395C412.35 299.267 415.839 299.386 418.513 299.383L435.185 299.395L435.185 303.94L435.185 320.353L414.147 320.353C412.863 320.421 411.07 320.363 409.754 320.353L409.754 299.395Z"/><path fill="#E9FF91" fill-opacity="0.80000001" d="M409.754 299.395C412.35 299.267 415.839 299.386 418.513 299.383L435.185 299.395L435.185 303.94L414.147 303.94L414.147 320.353C412.863 320.421 411.07 320.363 409.754 320.353L409.754 299.395Z"/><path fill="#E9FF91" fill-opacity="0.80000001" d="M440.511 298.183C448.593 298.478 445.051 310.815 445.169 318.652C445.275 332.926 444.95 330.251 431.113 330.217L407.887 330.207C406.388 329.959 405.717 329.736 404.372 328.986C401.872 331.293 394.058 330.229 390.674 330.228L366.464 330.207C365.508 329 364.736 327.921 363.543 326.941C362.094 328.004 361.245 328.925 359.989 330.207L324.279 330.207C323.166 328.599 322.597 327.727 321.699 326.002C325.389 325.785 329.909 325.988 333.71 325.993L357.603 326.002C357.619 316.965 357.466 307.75 357.603 298.734C358.981 298.742 360.399 298.77 361.774 298.734C361.848 303.519 360.995 322.395 362.527 325.485C364.596 326.465 373.338 326.01 376.085 326.006L399.978 326.002L399.96 308.329C399.943 305.342 399.777 301.05 399.978 298.183C401.583 298.328 402.783 298.462 404.372 298.734C404.477 302.242 403.417 323.839 405 325.409C408.615 326.792 435.776 326.152 440.511 326.002C440.867 317.421 440.432 306.984 440.511 298.183Z"/><path fill="#6A994E" fill-opacity="0.80000001" d="M367.248 299.395L394.632 299.395C394.671 300.9 394.642 302.433 394.632 303.94L394.632 320.353C387.004 320.34 379.115 320.225 371.509 320.353L367.248 320.353L367.248 299.395Z"/><path fill="#E9FF91" fill-opacity="0.80000001" d="M367.248 299.395L394.632 299.395C394.671 300.9 394.642 302.433 394.632 303.94L371.509 303.94L371.509 320.353L367.248 320.353L367.248 299.395Z"/><path fill="#386641" fill-opacity="0.89803922" d="M322.69 409.99C320.587 409.89 318.487 408.834 319.012 407.011C320.005 403.562 317.538 378.787 320.639 378.8C327.28 378.828 355.91 375.815 357.603 380.732C358.623 380.823 361.436 380.641 361.774 380.732C363.443 376.599 394.661 378.133 399.978 378.558C400.152 379.992 400.471 382.593 399.978 383.939C400.605 383.754 403.2 384.015 404.372 383.939C404.373 382.259 404.12 380.152 405.145 378.887C407.748 378.147 437.172 378.496 440.083 379.011C440.956 380.077 440.598 382.064 440.511 383.513C442.423 383.558 443.316 383.639 445.205 383.939C445.21 388.569 445.694 410.577 444.431 413.488C442.721 414.698 414.501 414.769 407.887 414.405C406.974 413.599 406.446 413.126 405.651 412.212C405.078 412.888 404.368 413.778 403.775 414.405L367.888 414.405L365.271 412.212C363.516 412.508 362.194 413.914 360.463 414.158C357.102 414.63 326.469 414.863 324.583 413.915C323.388 413.314 322.81 411.255 322.69 409.99Z"/><path fill="#386641" fill-opacity="0.89803922" d="M322.69 409.99C320.587 409.89 318.487 408.834 319.012 407.011C320.005 403.562 317.538 378.787 320.639 378.8C327.28 378.828 355.91 375.815 357.603 380.732L357.623 400.114C357.626 402.922 357.764 407.283 357.603 409.99L322.69 409.99Z"/><path fill="#A7C957" d="M324.279 383.939C327.006 383.774 331.064 383.919 333.891 383.921L352.54 383.939L352.54 388.27L352.54 404.25L328.262 404.25L324.279 404.25L324.279 383.939Z"/><path fill="#E9FF91" fill-opacity="0.80000001" d="M324.279 383.939C327.006 383.774 331.064 383.919 333.891 383.921L352.54 383.939L352.54 388.27L328.262 388.27C328.263 393.317 328.417 399.278 328.262 404.25L324.279 404.25L324.279 383.939Z"/><path fill="#386641" fill-opacity="0.89803922" d="M404.372 383.939C404.373 382.259 404.12 380.152 405.145 378.887C407.748 378.147 437.172 378.496 440.083 379.011C440.956 380.077 440.598 382.064 440.511 383.513C440.517 391.282 440.889 402.512 440.511 409.99C436.77 410.102 407.194 410.76 404.863 409.112C404.013 406.725 404.397 387.772 404.372 383.939Z"/><path fill="#6A994E" fill-opacity="0.80000001" d="M409.754 383.939C418.21 383.949 426.737 383.845 435.185 383.939L435.185 388.27L435.185 404.25C429.299 404.238 419.736 403.915 414.147 404.25C412.797 404.386 411.133 404.285 409.754 404.25C409.612 397.662 409.749 390.567 409.754 383.939Z"/><path fill="#E9FF91" fill-opacity="0.80000001" d="M409.754 383.939C418.21 383.949 426.737 383.845 435.185 383.939L435.185 388.27L414.147 388.27L414.147 404.25C412.797 404.386 411.133 404.285 409.754 404.25C409.612 397.662 409.749 390.567 409.754 383.939Z"/><path fill="#E9FF91" fill-opacity="0.80000001" d="M357.603 380.732C358.623 380.823 361.436 380.641 361.774 380.732C361.676 388.962 360.953 401.319 361.774 409.208C365.824 410.399 374.716 410.01 379.292 410.01L399.978 409.99L399.978 383.939C400.605 383.754 403.2 384.015 404.372 383.939C404.397 387.772 404.013 406.725 404.863 409.112C407.194 410.76 436.77 410.102 440.511 409.99C440.889 402.512 440.517 391.282 440.511 383.513C442.423 383.558 443.316 383.639 445.205 383.939C445.21 388.569 445.694 410.577 444.431 413.488C442.721 414.698 414.501 414.769 407.887 414.405C406.974 413.599 406.446 413.126 405.651 412.212C405.078 412.888 404.368 413.778 403.775 414.405L367.888 414.405L365.271 412.212C363.516 412.508 362.194 413.914 360.463 414.158C357.102 414.63 326.469 414.863 324.583 413.915C323.388 413.314 322.81 411.255 322.69 409.99L357.603 409.99C357.764 407.283 357.626 402.922 357.623 400.114L357.603 380.732Z"/><path fill="#A7C957" d="M367.248 383.939L384.628 383.933C389.313 383.933 394.493 382.133 394.632 386.427C394.725 392.369 394.617 398.308 394.632 404.25L371.509 404.25L367.248 404.25C366.765 398.448 367.047 389.76 367.248 383.939Z"/><path fill="#E9FF91" fill-opacity="0.80000001" d="M367.248 383.939L384.628 383.933C389.313 383.933 394.493 382.133 394.632 386.427C394.269 389.651 388.767 388.281 385.321 388.278L371.509 388.27L371.509 404.25L367.248 404.25C366.765 398.448 367.047 389.76 367.248 383.939Z"/><path fill="#386641" fill-opacity="0.89803922" d="M361.774 338.481C362.127 334.924 362.961 333.868 366.462 333.668C370.324 333.447 397.282 333.38 398.889 333.928C400.73 334.556 400.163 337.01 399.978 338.481L404.372 338.481C404.302 335.956 404.308 333.926 407.429 333.806C417.403 333.423 427.442 333.72 437.426 333.68C440.903 333.666 440.447 335.797 440.511 338.481C442.815 338.522 443.554 338.396 445.205 340.188L445.228 357.164C445.228 360.079 446.658 369.314 442.012 369.309C436.405 369.304 408.143 370.567 405.651 367.973L402.911 369.255C391.557 369.431 379.598 369.373 368.232 368.984C366.526 368.926 365.666 366.441 363.888 365.699C362.04 365.821 361.988 369.069 359.138 369.114C347.76 369.292 336.251 369.51 324.891 368.983C322.96 368.893 322.161 366.241 321.699 364.751C323.572 364.762 331.651 364.958 333.127 364.751C330.114 364.575 322.42 365.289 320.167 364.334C317.96 361.559 319.066 335.655 320.162 334.429C322.923 333.468 353.765 332.96 356.449 334.092C357.613 335.346 357.495 336.769 357.603 338.481L361.774 338.481Z"/><path fill="#386641" fill-opacity="0.89803922" d="M333.127 364.751C330.114 364.575 322.42 365.289 320.167 364.334C317.96 361.559 319.066 335.655 320.162 334.429C322.923 333.468 353.765 332.96 356.449 334.092C357.613 335.346 357.495 336.769 357.603 338.481L357.603 364.751L333.127 364.751Z"/><path fill="#E9FF91" fill-opacity="0.80000001" d="M324.279 338.95L352.54 338.95L352.54 343.064L335.375 343.064L328.262 343.064L328.262 359.303L324.279 359.303L324.279 338.95Z"/><path fill="#386641" fill-opacity="0.89803922" d="M404.372 338.481C404.302 335.956 404.308 333.926 407.429 333.806C417.403 333.423 427.442 333.72 437.426 333.68C440.903 333.666 440.447 335.797 440.511 338.481C440.512 347.14 440.644 356.122 440.511 364.751L419.226 364.76C416.125 364.761 407.071 365.273 404.888 363.707C403.991 361.367 404.367 342.451 404.372 338.481Z"/><path fill="#6A994E" fill-opacity="0.80000001" d="M409.754 338.95C418.155 338.629 426.79 338.712 435.185 338.95L435.185 343.064L435.185 359.303L414.147 359.303L409.754 359.303L409.754 338.95Z"/><path fill="#E9FF91" fill-opacity="0.80000001" d="M409.754 338.95C418.155 338.629 426.79 338.712 435.185 338.95L435.185 343.064C429.446 343.067 419.506 343.424 414.147 343.064L414.147 359.303L409.754 359.303L409.754 338.95Z"/><path fill="#E9FF91" fill-opacity="0.80000001" d="M440.511 338.481C442.815 338.522 443.554 338.396 445.205 340.188L445.228 357.164C445.228 360.079 446.658 369.314 442.012 369.309C436.405 369.304 408.143 370.567 405.651 367.973L402.911 369.255C391.557 369.431 379.598 369.373 368.232 368.984C366.526 368.926 365.666 366.441 363.888 365.699C362.04 365.821 361.988 369.069 359.138 369.114C347.76 369.292 336.251 369.51 324.891 368.983C322.96 368.893 322.161 366.241 321.699 364.751C323.572 364.762 331.651 364.958 333.127 364.751L357.603 364.751L357.603 338.481L361.774 338.481L361.75 353.788C361.743 357.141 360.144 365.05 365.119 365.01L399.978 364.751C399.972 356.669 399.651 346.367 399.978 338.481L404.372 338.481C404.367 342.451 403.991 361.367 404.888 363.707C407.071 365.273 416.125 364.761 419.226 364.76L440.511 364.751C440.644 356.122 440.512 347.14 440.511 338.481Z"/><path fill="#E9FF91" fill-opacity="0.80000001" d="M367.248 338.95L394.632 338.95L394.632 343.064L378.375 343.064C375.933 342.96 373.938 342.997 371.509 343.064C371.526 348.381 371.336 354.031 371.509 359.303C370.181 359.356 368.599 359.311 367.248 359.303L367.248 338.95Z"/><path fill="#6A994E" fill-opacity="0.80000001" d="M283.76 223.11C287.824 227.593 287.01 236.644 287.013 242.552L287.001 323.107L79.29 323.109C71.4033 323.109 61.6949 323.39 53.991 323.107L53.9851 241.362C53.9703 226.6 53.4886 223.248 70.0601 223.102L271.966 223.116C274.635 223.124 281.427 223.528 283.76 223.11Z"/><path fill="#386641" fill-opacity="0.89803922" d="M121.795 279.388C126.298 268.97 130.574 258.468 134.965 248.001C138.199 240.291 143.984 239.913 144.23 246.672C145.76 246.601 146.993 246.357 148.197 247.325C149.832 251.51 149.043 300.747 148.337 302.459C146.87 306.018 142.87 303.623 142.589 299.395C141.465 299.135 138.908 298.569 138.77 297.055C138.342 292.364 139.209 269.884 138.493 267.906C135.92 273.206 126.413 307.044 120.791 291.859C115.735 290.6 109.247 270.93 106.243 265.218L106.215 265.519C105.947 268.717 106.168 273.598 106.214 276.886L106.274 292.57C106.28 296.635 107.687 305.68 101.92 304.218C99.8335 303.689 99.9788 301.058 99.7828 299.395C98.3144 299.176 97.3419 299.141 96.374 298.03C95.7507 295.817 95.6184 247.984 96.2662 244.926C97.4674 239.254 102.794 242.6 105.067 246.672C105.995 246.581 107.161 247.104 108.069 247.437C109.514 249.538 110.983 253.281 112.008 255.739L118.501 271.531C119.337 273.577 120.855 277.666 121.795 279.388Z"/><path fill="#E9FF91" fill-opacity="0.80000001" d="M144.23 246.672C145.76 246.601 146.993 246.357 148.197 247.325C149.832 251.51 149.043 300.747 148.337 302.459C146.87 306.018 142.87 303.623 142.589 299.395L144.23 298.183C144.515 294.195 144.241 286.126 144.238 281.762L144.23 246.672Z"/><path fill="#E9FF91" fill-opacity="0.80000001" d="M101.749 253.916C103.343 257.499 105.283 261.466 106.243 265.218L106.215 265.519C105.947 268.717 106.168 273.598 106.214 276.886L106.274 292.57C106.28 296.635 107.687 305.68 101.92 304.218C99.8335 303.689 99.9788 301.058 99.7828 299.395C100.832 299.025 100.887 298.93 101.749 298.183C101.883 283.707 101.906 268.389 101.749 253.916Z"/><path fill="#E9FF91" fill-opacity="0.80000001" d="M138.493 254.961C138.476 259.245 138.411 263.631 138.493 267.906C135.92 273.206 126.413 307.044 120.791 291.859C124.18 290.46 127.229 281.673 128.737 278.177L138.493 254.961Z"/><path fill="#E9FF91" fill-opacity="0.80000001" d="M105.067 246.672C105.995 246.581 107.161 247.104 108.069 247.437C109.514 249.538 110.983 253.281 112.008 255.739L118.501 271.531C119.337 273.577 120.855 277.666 121.795 279.388C121.494 280.441 121.221 281.069 120.791 282.085C116.378 275.027 108.253 255.156 105.067 246.672Z"/><path fill="#386641" fill-opacity="0.89803922" d="M210.924 274.503C209.553 274.18 208.956 274.075 208.098 272.993C207.3 270.35 207.333 245.161 208.401 243.086C209.11 241.707 237.972 242.322 241.58 242.557C244.4 242.74 244.612 244.156 245.234 246.672C249.667 244.597 251.123 252.4 246.95 252.994C243.643 253.464 239.827 253.261 236.453 253.259L218.075 253.241C217.972 258.237 218.106 263.264 218.075 268.266C221.541 268.259 241.903 267.801 243.517 268.906C245.059 271.249 244.609 276.955 244.605 279.899L244.569 295.12L244.587 294.844C244.779 291.616 244.154 273.312 244.92 271.818C246.16 271.509 247.968 272.087 249.233 272.431C249.303 310.958 254.917 303.854 214.367 303.63C210.799 303.611 210.663 301.447 210.924 298.734C204.297 297.335 207.56 292.843 209.327 292.794C212.212 292.713 215.212 292.784 218.106 292.787L238.983 292.802L238.983 279.388C235.559 279.388 214.576 280.045 212.596 278.864C211.291 278.087 211.067 275.832 210.924 274.503Z"/><path fill="#E9FF91" fill-opacity="0.80000001" d="M244.569 295.12L244.587 294.844C244.779 291.616 244.154 273.312 244.92 271.818C246.16 271.509 247.968 272.087 249.233 272.431C249.303 310.958 254.917 303.854 214.367 303.63C210.799 303.611 210.663 301.447 210.924 298.734C214.94 298.739 242.073 299.427 243.788 297.878C244.527 297.21 244.515 296.03 244.569 295.12Z"/><path fill="#E9FF91" fill-opacity="0.80000001" d="M245.234 246.672C249.667 244.597 251.123 252.4 246.95 252.994C243.643 253.464 239.827 253.261 236.453 253.259L218.075 253.241C217.972 258.237 218.106 263.264 218.075 268.266L213.785 268.266C213.611 266.812 213.752 263.162 213.758 261.522L213.785 248.453L233.164 248.485C236.544 248.494 243.141 249.714 245.234 246.672Z"/><path fill="#E9FF91" fill-opacity="0.80000001" d="M210.924 274.503L238.983 274.503L238.983 279.388C235.559 279.388 214.576 280.045 212.596 278.864C211.291 278.087 211.067 275.832 210.924 274.503Z"/><path fill="#386641" fill-opacity="0.89803922" d="M159.938 298.734C158.558 298.714 156.73 298.892 155.753 297.819C153.913 291.09 154.649 247.286 155.594 244.757C157.072 240.8 183.872 242.129 188.253 242.513C191.119 242.763 192.172 243.992 193.024 246.672C198.398 245.392 197.711 250.243 195.298 253.241C186.5 253.597 174.976 253.238 165.919 253.241L165.919 268.266C169.903 268.257 189.572 267.6 191.635 269.351C192.452 270.045 192.59 271.51 193.024 272.431C198.043 272.403 197.999 276.234 195.298 279.388C185.887 279.632 175.448 279.386 165.919 279.388C165.828 283.766 165.744 288.42 165.919 292.802L180.395 292.79C185.587 292.792 191.577 291.264 193.024 296.85C196.816 296.034 200.908 302.85 192.155 303.743C186.371 303.875 165 304.548 160.943 303.146C160.109 302.035 160.075 300.152 159.938 298.734Z"/><path fill="#E9FF91" fill-opacity="0.80000001" d="M193.024 246.672C198.398 245.392 197.711 250.243 195.298 253.241C186.5 253.597 174.976 253.238 165.919 253.241L165.919 268.266C164.11 268.398 162.536 268.323 160.726 268.266C160.871 267.445 160.763 263.091 160.758 262.026L160.726 248.453C162.656 248.276 166.244 248.428 168.312 248.437L182.646 248.471C185.433 248.468 191.313 249.338 193.024 246.672Z"/><path fill="#E9FF91" fill-opacity="0.80000001" d="M193.024 272.431C198.043 272.403 197.999 276.234 195.298 279.388C185.887 279.632 175.448 279.386 165.919 279.388C165.828 283.766 165.744 288.42 165.919 292.802C164.306 292.742 162.365 292.798 160.726 292.802C160.901 291.043 160.768 288.228 160.757 286.377L160.726 274.503L180.759 274.521C184.915 274.541 191.21 276.052 193.024 272.431Z"/><path fill="#E9FF91" fill-opacity="0.80000001" d="M193.024 296.85C196.816 296.034 200.908 302.85 192.155 303.743C186.371 303.875 165 304.548 160.943 303.146C160.109 302.035 160.075 300.152 159.938 298.734L181.204 298.76C185.09 298.778 190.992 300.058 193.024 296.85Z"/><path fill="#6A994E" fill-opacity="0.80000001" d="M313.979 80.7384L366.464 80.7384L366.464 264.593L297.757 264.593L292.68 264.593L292.709 242.037C292.72 233.782 293.434 228.72 289.876 221.053C283.453 210.796 273.133 211.948 262.545 211.954L165.919 211.964C164.332 211.86 162.348 211.94 160.726 211.964L160.726 171.283L295.519 171.286C301.554 171.287 307.983 171.427 313.979 171.283C314.327 160.279 313.979 147.074 313.978 135.939L313.979 80.7384Z"/><path fill="#E9FF91" fill-opacity="0.80000001" d="M313.979 80.7384L366.464 80.7384C366.236 82.2917 366.388 83.9444 366.464 85.5213C360.579 86.2373 351.465 85.505 345.204 85.5117L328.766 85.5411C325.474 85.5685 322.444 85.8581 319.167 85.5213L319.178 141.926C319.178 146.284 319.636 172.939 318.398 175.254C316.1 177.257 301.978 176.318 298.377 176.317L165.919 176.309L165.919 211.964C164.332 211.86 162.348 211.94 160.726 211.964L160.726 171.283L295.519 171.286C301.554 171.287 307.983 171.427 313.979 171.283C314.327 160.279 313.979 147.074 313.978 135.939L313.979 80.7384Z"/><path fill="#E9FF91" fill-opacity="0.80000001" d="M289.876 221.053L290.247 220.957C298.508 226.839 297.771 239.981 297.77 248.889L297.757 264.593L292.68 264.593L292.709 242.037C292.72 233.782 293.434 228.72 289.876 221.053Z"/><path fill="#A7C957" d="M154.982 85.5213L154.982 211.964L116.802 211.974C111.078 211.975 103.289 212.212 97.6951 211.964C97.4427 207.758 97.7655 202.735 98.0103 198.495L102.145 114.065C102.58 104.552 103.505 95.0771 103.739 85.5213C120.483 85.2986 138.193 85.4409 154.982 85.5213Z"/><path fill="#E9FF91" fill-opacity="0.80000001" d="M49.1955 328.986L287.001 328.986C286.983 336.886 288.756 348.512 283.76 354.614C281.034 357.088 279.294 357.728 275.703 357.731L67.7936 357.736C65.2083 357.734 62.245 357.827 59.7114 357.675C46.4241 356.877 49.1791 337.541 49.1955 328.986Z"/><path fill="#6A994E" fill-opacity="0.80000001" d="M275.525 141.452C285.787 129.06 297.192 110.515 308.239 99.7004C308.123 102.202 308.25 105.659 308.239 108.241C308.533 114.317 308.232 122.542 308.233 128.846L308.239 165.5C299.652 165.501 289.173 165.807 280.757 165.5C279.237 165.415 277.094 165.49 275.525 165.5L275.525 141.452Z"/><path fill="#E9FF91" fill-opacity="0.80000001" d="M275.525 141.452C285.787 129.06 297.192 110.515 308.239 99.7004C308.123 102.202 308.25 105.659 308.239 108.241C302.754 114.511 281.885 141.885 281.089 144.822C280.096 148.482 280.811 160.807 280.757 165.5C279.237 165.415 277.094 165.49 275.525 165.5L275.525 141.452Z"/><path fill="#6A994E" fill-opacity="0.80000001" d="M239.723 143.608L269.781 143.608L269.781 148.792L269.781 165.5L244.569 165.5C243.074 165.44 241.244 165.495 239.723 165.5L239.723 143.608Z"/><path fill="#E9FF91" fill-opacity="0.80000001" d="M239.723 143.608L269.781 143.608L269.781 148.792L244.569 148.792L244.569 165.5C243.074 165.44 241.244 165.495 239.723 165.5L239.723 143.608Z"/><path fill="#6A994E" fill-opacity="0.80000001" d="M169.249 363.706L174.055 363.706C176.576 363.765 178.785 363.805 181.317 363.706L181.317 403.289L174.055 403.289L169.249 403.289L169.249 363.706Z"/><path fill="#E9FF91" fill-opacity="0.80000001" d="M169.249 363.706L174.055 363.706L174.055 403.289L169.249 403.289L169.249 363.706Z"/><path fill="#6A994E" fill-opacity="0.80000001" d="M224.407 363.706C226.837 363.763 228.956 363.79 231.397 363.706L231.383 390.003C231.381 394.135 231.227 399.271 231.397 403.289C229.098 403.281 226.697 403.235 224.407 403.289L219.65 403.289L219.65 363.706L224.407 363.706Z"/><path fill="#E9FF91" fill-opacity="0.80000001" d="M219.65 363.706L224.407 363.706C224.019 376.106 224.409 390.727 224.407 403.289L219.65 403.289L219.65 363.706Z"/><path fill="#6A994E" fill-opacity="0.80000001" d="M123.698 363.706C125.869 363.713 128.074 363.742 130.241 363.706L130.241 367.973L130.241 403.289C128.162 403.319 125.747 403.413 123.698 403.289L118.555 403.289L118.555 363.706L123.698 363.706Z"/><path fill="#E9FF91" fill-opacity="0.80000001" d="M118.555 363.706L123.698 363.706C123.7 365.116 123.718 366.568 123.698 367.973L123.698 403.289L118.555 403.289L118.555 363.706Z"/><path fill="#6A994E" fill-opacity="0.80000001" d="M193.024 148.792L213.785 148.792L213.785 165.5L193.024 165.5L193.024 148.792Z"/></svg>