<?xml version="1.0" encoding="utf-8" ?><svg xmlns="http://www.w3.org/2000/svg" xmlns:xlink="http://www.w3.org/1999/xlink" width="512" height="512" viewBox="0 0 512 512"><path fill="#A7C957" fill-opacity="0.80000001" d="M137.548 144.277L137.511 133.225C137.502 130.43 136.994 126.345 138.814 124.134C141.537 123.004 159.287 123.421 163.696 123.42L228.778 123.422C253.229 123.396 249.64 119.593 249.562 144.277L268.491 144.265C272.542 144.262 286.798 142.748 279.031 151.405C269.304 152.02 259.324 151.292 249.562 151.405C249.672 172.01 252.73 170.259 233.937 170.255L144.475 170.248C144.412 172.289 144.352 173.993 144.475 176.024C150.401 176.474 158.042 176.026 164.169 176.024L234.998 176.028C253.313 176.029 255.409 178.224 255.262 157.303C266.469 157.657 289.254 153.536 295.072 164.629C293.075 166.98 289.757 169.804 288.299 172.02L288.291 265.01C288.29 270.137 285.894 283.977 294.458 280.273C294.501 284.358 294.226 289.461 294.458 293.321C286.98 299.461 287.97 308.328 287.971 317.093L287.992 334.594C284.607 331.149 283.713 331.419 280.323 334.794L262.358 352.997C246.069 369.377 243.491 365.047 257.941 379.591L274.506 396.024C278.089 399.568 283.879 406.279 287.992 408.536L287.992 429.612C287.893 428.671 287.97 427.236 287.992 426.251C284.403 426.455 279.389 426.22 275.579 426.251C280.858 435.854 256.914 432.484 251.756 432.484L113.374 432.429C98.3678 432.333 91.8101 422.265 92.3855 408.536L61.5383 408.54C50.3284 408.56 44.2378 412.109 44.2217 400.743L44.2254 257.583C44.1948 229.161 37.9681 229.733 63.0801 229.742L92.3855 229.758L92.3823 182.504C92.3823 171.257 89.9475 158.438 97.8819 149.917C104.13 143.208 113.254 144.261 121.602 144.261L137.548 144.277ZM137.548 157.303C137.527 164.019 135.183 170.312 143.758 170.257L144.475 170.248L233.937 170.255C252.73 170.259 249.672 172.01 249.562 151.405C259.324 151.292 269.304 152.02 279.031 151.405C286.798 142.748 272.542 144.262 268.491 144.265L249.562 144.277C249.64 119.593 253.229 123.396 228.778 123.422L163.696 123.42C159.287 123.421 141.537 123.004 138.814 124.134C136.994 126.345 137.502 130.43 137.511 133.225L137.548 144.277L121.602 144.261C113.254 144.261 104.13 143.208 97.8819 149.917C89.9475 158.438 92.3823 171.257 92.3823 182.504L92.3855 229.758L63.0801 229.742C37.9681 229.733 44.1948 229.161 44.2254 257.583L44.2217 400.743C44.2378 412.109 50.3284 408.56 61.5383 408.54L92.3855 408.536C91.8101 422.265 98.3678 432.333 113.374 432.429L251.756 432.484C256.914 432.484 280.858 435.854 275.579 426.251C271.708 424.617 250.596 425.356 245.19 425.359L125.003 425.359C117.84 425.369 111.242 426.503 104.751 423.202C104.603 420.18 104.705 416.597 104.751 413.54C104.909 412.482 104.78 409.743 104.751 408.536C103.601 408.608 102.867 408.584 101.709 408.536C105.487 408.36 110.677 408.536 114.605 408.536L140.761 408.543C146.093 408.556 158.01 410.953 158.144 404.615C158.267 398.763 158.208 392.878 158.203 387.025L158.195 242.508C158.243 225.468 157.219 229.745 137.747 229.745L104.751 229.758L104.729 171.311C104.702 157.498 109.668 157.223 122.581 157.284L137.548 157.303Z"/><path fill="#386641" d="M137.548 144.277L137.511 133.225C137.502 130.43 136.994 126.345 138.814 124.134C141.537 123.004 159.287 123.421 163.696 123.42L228.778 123.422C253.229 123.396 249.64 119.593 249.562 144.277L268.491 144.265C272.542 144.262 286.798 142.748 279.031 151.405C269.304 152.02 259.324 151.292 249.562 151.405C249.672 172.01 252.73 170.259 233.937 170.255L144.475 170.248L143.758 170.257C135.183 170.312 137.527 164.019 137.548 157.303L137.548 151.405C131.398 151.663 125.155 151.245 118.952 151.383C103.03 151.738 99.3377 152.907 99.339 169.642L99.359 229.758L104.751 229.758L137.747 229.745C157.219 229.745 158.243 225.468 158.195 242.508L158.203 387.025C158.208 392.878 158.267 398.763 158.144 404.615C158.01 410.953 146.093 408.556 140.761 408.543L114.605 408.536C110.677 408.536 105.487 408.36 101.709 408.536L99.359 408.536C99.1496 414.228 99.3279 419.672 104.751 423.202C111.242 426.503 117.84 425.369 125.003 425.359L245.19 425.359C250.596 425.356 271.708 424.617 275.579 426.251C280.858 435.854 256.914 432.484 251.756 432.484L113.374 432.429C98.3678 432.333 91.8101 422.265 92.3855 408.536L61.5383 408.54C50.3284 408.56 44.2378 412.109 44.2217 400.743L44.2254 257.583C44.1948 229.161 37.9681 229.733 63.0801 229.742L92.3855 229.758L92.3823 182.504C92.3823 171.257 89.9475 158.438 97.8819 149.917C104.13 143.208 113.254 144.261 121.602 144.261L137.548 144.277ZM80.4953 276.773L121.562 276.773C124.368 276.624 123.096 271.793 122.948 269.337L82.6068 269.337C78.9874 269.574 80.5533 273.821 80.4953 276.773ZM51.2589 401.623C52.9643 401.613 54.8897 401.56 56.5743 401.623L56.5743 241.759L151.21 241.759C151.193 240.218 151.119 238.232 151.21 236.727L51.2589 236.727L51.2563 383.375C51.2552 389.133 51.0499 395.95 51.2589 401.623Z"/><path fill="#6A994E" fill-opacity="0.80000001" d="M151.21 241.759L151.21 401.623L56.5743 401.623L56.5743 241.759L151.21 241.759ZM80.4953 276.773L121.562 276.773C124.368 276.624 123.096 271.793 122.948 269.337L82.6068 269.337C78.9874 269.574 80.5533 273.821 80.4953 276.773Z"/><path fill="#386641" d="M79.7162 328.052C71.19 328.832 73.8717 320.311 73.7175 313.851C73.5557 307.077 76.2525 307.273 81.8626 307.246L110.75 307.23C119.736 307.232 129.532 303.945 129.536 313.787C131.007 314.577 131.997 315.07 133.053 316.44C133.081 320.095 133.6 332.205 131.642 333.036C129.412 333.983 87.3723 334.598 81.2792 333.524C79.8134 332.643 79.7984 329.666 79.7162 328.052Z"/><path fill="#E9FF91" fill-opacity="0.80000001" d="M129.536 313.787C131.007 314.577 131.997 315.07 133.053 316.44C133.081 320.095 133.6 332.205 131.642 333.036C129.412 333.983 87.3723 334.598 81.2792 333.524C79.8134 332.643 79.7984 329.666 79.7162 328.052C87.9877 327.385 124.16 329.353 128.742 327.115C130.235 325.333 129.545 316.697 129.536 313.787Z"/><path fill="#E9FF91" fill-opacity="0.80000001" d="M80.4953 313.787L122.948 313.787L122.948 321.165C109.169 321.445 94.3367 321.166 80.4953 321.165L80.4953 313.787Z"/><path fill="#386641" d="M76.7089 356.737C91.4179 355.844 108.958 356.659 123.899 356.77C132.789 356.836 128.806 367.127 129.51 373.836C129.696 375.608 128.676 377.513 126.744 377.96C112.1 378.256 91.5817 378.943 77.0679 377.734C73.1106 377.405 70.993 360.124 76.7089 356.737Z"/><path fill="#E9FF91" fill-opacity="0.80000001" d="M82.6068 363.61L122.948 363.61C122.98 365.972 124.065 370.859 121.562 371.072L80.4953 371.072C80.4881 368.124 78.8995 363.815 82.6068 363.61Z"/><path fill="#386641" d="M76.7089 262.464C79.1281 262.324 82.5442 262.445 85.0386 262.449L116.36 262.441C133.222 262.433 129.508 263.213 129.392 280.49C129.385 281.629 127.672 282.926 126.744 283.46C114.639 284.873 89.4134 283.659 76.7089 283.46C72.0113 280.11 73.4957 270.163 74.0658 264.836C74.1674 263.887 76.0357 262.844 76.7089 262.464ZM80.4953 276.773L121.562 276.773C124.368 276.624 123.096 271.793 122.948 269.337L82.6068 269.337C78.9874 269.574 80.5533 273.821 80.4953 276.773Z"/><path fill="#6A994E" fill-opacity="0.80000001" d="M144.475 130.522L242.539 130.522L242.539 136.296L242.539 163.198C211.936 163.198 180.638 162.836 150.1 163.198C148.007 163.032 146.555 163.072 144.475 163.198L144.475 130.522Z"/><path fill="#E9FF91" fill-opacity="0.80000001" d="M144.475 130.522L242.539 130.522L242.539 136.296L180.983 136.302C171.328 136.303 159.607 136.618 150.1 136.296L150.1 163.198C148.007 163.032 146.555 163.072 144.475 163.198L144.475 130.522Z"/><path fill="#A7C957" fill-opacity="0.80000001" d="M158.195 242.508C160.687 242.386 163.78 242.227 166.23 242.508C166.569 248.865 166.229 258.821 166.228 265.438L166.233 382.278C166.234 387.653 166.589 411.402 165.651 414.398C160.59 416.175 123.583 414.974 115.45 414.984C112.114 414.987 108.629 415.217 105.321 414.96L104.998 414.752L104.751 413.54C104.909 412.482 104.78 409.743 104.751 408.536C103.601 408.608 102.867 408.584 101.709 408.536C105.487 408.36 110.677 408.536 114.605 408.536L140.761 408.543C146.093 408.556 158.01 410.953 158.144 404.615C158.267 398.763 158.208 392.878 158.203 387.025L158.195 242.508Z"/><path fill="#386641" d="M223.791 241.759C225.998 241.598 230.09 241.734 232.446 241.737L250.025 241.762C256.398 241.77 262.773 241.849 269.135 241.552C273.68 241.34 273.736 248.343 269.893 248.713C256.254 250.027 239.738 248.416 225.717 248.878C219.971 253.338 208.586 265.966 203.541 271.527C201.928 273.275 199.501 276.193 196.899 274.25C193.858 271.978 175.452 254.002 175.225 251.502C174.948 248.458 179.397 247.406 181.477 248.946C186.286 252.505 193.887 261.553 198.578 266.087C202.773 261.907 219.716 242.77 223.791 241.759Z"/><path fill="#386641" d="M255.262 285.919C259.793 285.936 272.563 283.894 272.749 289.483C272.952 295.578 260.075 293.335 255.447 293.334L224.351 293.321C222.588 294.701 219.895 297.603 218.248 299.28L205.137 312.691C193.702 324.374 196.221 323.657 185.579 312.657C183.114 310.049 174.862 303.291 174.729 299.972C174.652 298.051 176.812 296.542 178.616 296.75C180.982 297.022 192.934 310.127 195.296 312.657C197.922 309.865 220.121 286.524 221.62 286.387C231.017 285.527 245.53 285.909 255.262 285.919Z"/><path fill="#386641" d="M223.791 329.585L249.051 329.577C253.185 329.574 257.974 329.42 262.04 329.811C266.112 330.203 266.465 337.278 260.938 337.003C248.387 336.794 235.739 337.273 223.189 336.922C218.355 336.786 217.561 330.114 223.791 329.585Z"/><path fill="#6A994E" fill-opacity="0.80000001" d="M320.332 140.506C315.634 135.38 293.991 114.079 288.777 108.222C288.102 104.044 288.037 92.5409 288.29 88.6891C288.998 77.9408 285.498 66.145 294.272 58.4425C301.733 51.8931 312.149 53.8703 321.701 53.876L438.456 53.8387C467.98 53.7981 468.007 61.9004 467.982 88.4944L468.004 195.643C468.082 223.809 454.365 221.235 432.47 221.235L400.237 221.226L400.259 238.22C400.264 241.882 401.556 253.407 394.352 248.885C392.371 247.642 393.177 236.243 393.153 233.608C393.113 232.369 393.148 231.008 393.153 229.758L376.621 229.769C368.509 229.817 365.775 232.249 366.455 223.49C367.797 206.2 358.122 208.289 344.914 208.274L318.849 208.281C316.014 208.285 304.669 209.352 302.625 207.368C300.148 204.965 301.121 181.288 301.089 176.764C305.994 173.89 332.474 147.599 333.715 144.977C334.763 142.762 330.593 139.38 328.903 138.756C330.032 143.229 323.894 147.074 320.646 150.268L295.467 174.754L295.455 192.897C295.453 202.763 293.806 214.483 307.706 214.056C314.4 213.85 355.624 212.799 359.533 214.999C361.259 217.005 360.996 247.279 359.121 248.981C350.106 257.164 353.232 223.871 353.233 221.226L319.261 221.216C308.726 221.225 304.844 222.743 295.467 217.895L295.482 270.506C295.482 273.504 295.911 277.698 294.458 280.273C285.894 283.977 288.29 270.137 288.291 265.01L288.299 172.02C289.757 169.804 293.075 166.98 295.072 164.629C302.481 158.463 313.223 147.458 320.332 140.506ZM300.694 110.482C302.825 105.845 299.17 81.2636 301.696 73.5645C305.053 63.3348 327.068 66.7643 336.28 66.768L418.608 66.7819C426.472 66.7822 455.18 62.898 455.255 76.2603L455.212 201.447C455.153 211.608 437.005 208.287 429.262 208.283L405.744 208.284C399.871 208.243 387.653 206.373 393.153 216.625C397.427 212.284 399.974 213.911 405.638 213.881L436.773 213.879C446.637 213.878 460.645 216.269 460.912 201.91C461.078 193.002 460.991 184.003 460.992 175.093L461.008 91.351C461.044 62.1648 462.045 61.0958 435.208 61.1442L310.334 61.1069C293.856 61.1063 295.456 68.6254 295.455 82.6294L295.467 105.435C297.076 107.173 298.954 108.857 300.694 110.482Z"/><path fill="#386641" d="M320.332 140.506C315.634 135.38 293.991 114.079 288.777 108.222C288.102 104.044 288.037 92.5409 288.29 88.6891C288.998 77.9408 285.498 66.145 294.272 58.4425C301.733 51.8931 312.149 53.8703 321.701 53.876L438.456 53.8387C467.98 53.7981 468.007 61.9004 467.982 88.4944L468.004 195.643C468.082 223.809 454.365 221.235 432.47 221.235L400.237 221.226L400.259 238.22C400.264 241.882 401.556 253.407 394.352 248.885C392.371 247.642 393.177 236.243 393.153 233.608C393.284 228.046 393.175 222.206 393.153 216.625C397.427 212.284 399.974 213.911 405.638 213.881L436.773 213.879C446.637 213.878 460.645 216.269 460.912 201.91C461.078 193.002 460.991 184.003 460.992 175.093L461.008 91.351C461.044 62.1648 462.045 61.0958 435.208 61.1442L310.334 61.1069C293.856 61.1063 295.456 68.6254 295.455 82.6294L295.467 105.435C297.076 107.173 298.954 108.857 300.694 110.482C302.694 112.669 329.549 139.002 328.903 138.756C330.032 143.229 323.894 147.074 320.646 150.268L295.467 174.754L295.455 192.897C295.453 202.763 293.806 214.483 307.706 214.056C314.4 213.85 355.624 212.799 359.533 214.999C361.259 217.005 360.996 247.279 359.121 248.981C350.106 257.164 353.232 223.871 353.233 221.226L319.261 221.216C308.726 221.225 304.844 222.743 295.467 217.895L295.482 270.506C295.482 273.504 295.911 277.698 294.458 280.273C285.894 283.977 288.29 270.137 288.291 265.01L288.299 172.02C289.757 169.804 293.075 166.98 295.072 164.629C302.481 158.463 313.223 147.458 320.332 140.506Z"/><path fill="#E9FF91" fill-opacity="0.80000001" d="M377.445 162.778C367.03 152.601 365.344 136.447 373.432 124.338C381.52 112.229 397.088 107.599 410.478 113.322C423.869 119.044 431.283 133.494 428.122 147.709C428.612 146.79 428.575 146.817 428.691 145.763L428.731 145.902L428.882 145.627C432.104 177.27 389.88 187.538 377.415 162.981C377.425 162.913 377.435 162.846 377.445 162.778Z"/><path fill="#6A994E" fill-opacity="0.80000001" d="M428.122 147.709C428.612 146.79 428.575 146.817 428.691 145.763L428.731 145.902L428.882 145.627C432.104 177.27 389.88 187.538 377.415 162.981C377.425 162.913 377.435 162.846 377.445 162.778C385.297 170.452 396.69 173.269 407.213 170.14C417.736 167.011 425.739 158.426 428.122 147.709Z"/><path fill="#386641" d="M397.242 116.959C410.622 116.214 422.067 126.466 422.794 139.847C423.521 153.227 413.254 164.659 399.873 165.368C386.517 166.076 375.111 155.832 374.385 142.477C373.66 129.122 383.888 117.703 397.242 116.959Z"/><path fill="#E9FF91" fill-opacity="0.80000001" d="M396.765 124.471C405.925 123.46 414.181 130.038 415.242 139.192C416.303 148.346 409.771 156.639 400.623 157.75C391.403 158.87 383.032 152.276 381.963 143.05C380.893 133.824 387.534 125.49 396.765 124.471Z"/><path fill="#6A994E" fill-opacity="0.80000001" d="M389.554 146.729C387.44 143.338 387.393 139.052 389.433 135.616C391.472 132.18 395.257 130.168 399.246 130.4C403.235 130.632 406.761 133.069 408.389 136.718C410.677 141.849 408.604 147.875 403.643 150.512C398.682 153.149 392.527 151.496 389.554 146.729Z"/><path fill="#6A994E" fill-opacity="0.80000001" d="M389.554 146.729C387.44 143.338 387.393 139.052 389.433 135.616C391.472 132.18 395.257 130.168 399.246 130.4C403.235 130.632 406.761 133.069 408.389 136.718L407.948 137.038C400.718 134.635 392.504 135.267 390.455 144.346C390.294 145.058 389.934 146.103 389.554 146.729Z"/><path fill="#6A994E" fill-opacity="0.80000001" d="M393.153 262.464L393.149 281.633C393.136 287.306 391.16 294.769 397.933 295.883C391.961 304.663 409.842 302.018 414.558 302.019L439.822 302.012C443.897 302.009 448.522 301.863 452.525 302.005C455.372 304.962 455.172 307.071 455.209 311.387L455.238 419.093C455.238 424.706 457.632 442.16 449.891 442.681C444.246 442.843 438.347 442.763 432.715 442.756L307.781 442.782C298.709 442.84 301.058 433.579 301.068 426.7L301.12 406.484C301.16 402.009 302.072 395.519 298.65 392.257C295.372 389.132 290.92 390.237 287.992 393.14C284.667 390.242 280.731 386.081 277.498 382.86L264.113 369.688C270.275 364.362 279.079 354.825 284.824 348.835C287.068 351.239 289.633 354.508 293.189 354.648C296.436 354.904 300.541 352.188 300.761 348.684C301.564 335.912 300.824 322.887 301.093 310.073C301.334 298.627 310.118 301.975 320.12 301.985L348.378 302.032C371.129 302.077 366.171 297.784 366.539 278.182L393.153 278.182C393.175 274.64 392.813 265.427 393.153 262.464Z"/><path fill="#386641" d="M317.798 363.61C316.816 361.533 312.899 358.838 312.915 355.25C313.017 349.006 322.873 341.032 328.716 345.636C332.921 348.949 336.971 353.515 340.704 357.47C346.019 352.503 351.955 341.558 357.715 348.835C361.37 349.172 364.724 350.562 362.893 354.945L365.067 356.737C368.426 354.9 371.834 361.169 373.094 363.61C371.729 365.888 362.628 374.904 360.332 376.856C362.29 379.75 364.45 381.265 366.539 383.764C365.619 386.087 364.92 386.914 362.893 388.435C362.594 391.928 359.798 392.55 357.715 394.158C356.487 398.31 353.971 400.105 350.494 396.842L350.494 396.842C349.521 396.03 348.887 395.145 348.096 394.158C347.516 393.837 346.856 393.495 346.306 393.14L345.982 393.366C341.012 396.903 335.403 406.604 329.62 407.661C327.797 407.994 319.22 398.869 318.833 396.842C317.065 394.21 312.507 391.247 313.236 387.549C314.148 382.923 321.815 376.004 325.476 373.294C324.473 372.46 317.979 364.537 317.798 363.61Z"/><path fill="#E9FF91" fill-opacity="0.80000001" d="M317.798 363.61C316.816 361.533 312.899 358.838 312.915 355.25C313.017 349.006 322.873 341.032 328.716 345.636C332.921 348.949 336.971 353.515 340.704 357.47C346.019 352.503 351.955 341.558 357.715 348.835C354.047 353.796 345.283 360.954 340.704 365.819C337.189 362.314 329.354 353.609 325.798 351.194C323.581 349.689 319.175 352.264 319.529 354.987C319.801 357.083 332.753 369.331 334.968 371.072C330.347 376.816 324.864 381.648 320.17 387.254C318.108 389.716 323.361 393.884 324.91 392.828C330.428 389.067 335.556 382.18 340.704 377.96C345.533 382.046 353.193 391.585 357.715 394.158C356.487 398.31 353.971 400.105 350.494 396.842L350.494 396.842C349.521 396.03 348.887 395.145 348.096 394.158C347.516 393.837 346.856 393.495 346.306 393.14L345.982 393.366C341.012 396.903 335.403 406.604 329.62 407.661C327.797 407.994 319.22 398.869 318.833 396.842C317.065 394.21 312.507 391.247 313.236 387.549C314.148 382.923 321.815 376.004 325.476 373.294C324.473 372.46 317.979 364.537 317.798 363.61Z"/><path fill="#6A994E" fill-opacity="0.80000001" d="M318.833 396.842C327.42 403.803 334.914 392.558 340.704 386.073C342.647 388.032 346.578 391.912 348.096 394.158L348.096 394.158C347.516 393.837 346.856 393.495 346.306 393.14L345.982 393.366C341.012 396.903 335.403 406.604 329.62 407.661C327.797 407.994 319.22 398.869 318.833 396.842Z"/><path fill="#6A994E" fill-opacity="0.80000001" d="M317.798 363.61C320.379 365.243 328.758 370.367 325.476 373.294C324.473 372.46 317.979 364.537 317.798 363.61Z"/><path fill="#6A994E" fill-opacity="0.80000001" d="M348.096 394.158L348.096 394.158L350.494 396.842L350.494 396.842C349.521 396.03 348.887 395.145 348.096 394.158Z"/><path fill="#E9FF91" fill-opacity="0.80000001" d="M362.893 354.945L365.067 356.737C368.426 354.9 371.834 361.169 373.094 363.61C371.729 365.888 362.628 374.904 360.332 376.856C362.29 379.75 364.45 381.265 366.539 383.764C365.619 386.087 364.92 386.914 362.893 388.435C358.938 384.956 349.2 374.964 346.306 371.072C346.385 371.013 346.465 370.954 346.545 370.895L346.938 370.591C351.415 367.189 358.117 359.085 362.893 354.945Z"/><path fill="#6A994E" fill-opacity="0.80000001" d="M365.067 356.737C368.426 354.9 371.834 361.169 373.094 363.61C371.729 365.888 362.628 374.904 360.332 376.856C357.732 374.681 356.825 373.729 354.667 371.072C357.676 369.103 369.618 360.383 365.067 356.737Z"/><path fill="#E9FF91" fill-opacity="0.80000001" d="M394.826 371.072C391.53 368.368 386.205 362.992 383.656 359.654C379.468 354.17 384.663 344.688 391.492 344.166C398.76 343.612 404.153 352.122 409.443 356.438L409.813 356.737C412.669 352.49 424.097 338.861 425.878 349.687C429.805 348.99 432.92 350.517 431.446 354.945C433.089 356.435 434.529 358.359 434.168 360.731C440.418 363.506 429.607 371.381 427.34 373.294C433.131 378.83 441.164 384.291 436.865 393.14C442.018 397.248 430.282 407.769 423.627 400.772C422.627 399.717 421.663 398.414 421.805 396.842C418.595 395.075 415.997 390.999 412.236 388.435C410.616 393.541 394.686 410.524 387.318 398.301C387.04 397.84 386.948 397.399 386.989 396.842C375.45 385.37 386.813 380.773 394.526 371.44L394.826 371.072Z"/><path fill="#386641" d="M425.878 349.687C429.805 348.99 432.92 350.517 431.446 354.945C425.865 359.487 420.457 365.971 415.185 371.072C417.883 373.604 430.697 385.234 431.195 387.858C431.714 390.593 428.233 392.976 425.84 391.612C421.364 389.06 415.179 380.656 410.101 377.058L409.813 376.856C404.567 381.183 400.261 386.863 394.977 391.16C391.626 393.885 387.255 389.441 389.69 386.523C394.167 381.155 399.635 376.478 404.137 371.072C400.148 367.815 395.506 362.459 392.044 359.442C385.414 353.664 391.581 349.144 394.184 351.329C399.192 355.532 404.682 361.379 409.813 365.819C413.061 361.738 421.734 353.804 425.878 349.687Z"/><path fill="#6A994E" fill-opacity="0.80000001" d="M409.813 386.073C410.157 386.33 411.828 388.035 412.236 388.435C410.616 393.541 394.686 410.524 387.318 398.301C387.04 397.84 386.948 397.399 386.989 396.842C397.501 403.183 402.616 392.971 409.813 386.073Z"/><path fill="#6A994E" fill-opacity="0.80000001" d="M436.865 393.14C442.018 397.248 430.282 407.769 423.627 400.772C422.627 399.717 421.663 398.414 421.805 396.842L422.049 397.048C428.162 402.162 432.808 398.206 436.865 393.14Z"/><path fill="#6A994E" fill-opacity="0.80000001" d="M434.168 360.731C440.418 363.506 429.607 371.381 427.34 373.294C426.502 372.551 425.626 371.575 424.845 370.751C427.797 367.578 431.884 364.332 434.168 360.731Z"/><path fill="#6A994E" fill-opacity="0.80000001" d="M366.539 383.764C369.122 386.069 371.726 388.351 373.094 391.593C367.875 400.84 358.163 410.891 350.494 396.842L350.494 396.842C353.971 400.105 356.487 398.31 357.715 394.158C359.798 392.55 362.594 391.928 362.893 388.435C364.92 386.914 365.619 386.087 366.539 383.764Z"/><path fill="#386641" d="M393.153 262.464C393.935 259.496 398.24 259.305 399.768 261.799C400.806 263.491 400.243 285.197 400.237 288.807L434.127 288.798C455.532 288.805 467.999 287.226 467.993 312.669L467.995 426.475C468.049 441.987 467.197 456.417 447.264 456.31L317.671 456.269C294.395 456.304 287.833 454.583 287.992 429.612L287.992 408.536C283.879 406.279 278.089 399.568 274.506 396.024L257.941 379.591C243.491 365.047 246.069 369.377 262.358 352.997L280.323 334.794C283.713 331.419 284.607 331.149 287.992 334.594L287.971 317.093C287.97 308.328 286.98 299.461 294.458 293.321C301.352 286.826 311.095 288.794 320.246 288.795L353.233 288.807L353.212 272.168C353.209 269.388 352.198 262.993 354.406 260.82C355.603 259.643 358.836 260.112 359.786 261.434C361.189 263.387 360.743 291.493 360.163 293.656C359.095 297.641 346.343 295.89 343.251 295.885L315.683 295.863C308.272 295.86 298.539 294.306 295.742 303.499C293.544 310.725 296.742 345.925 294.177 348.427C291.773 348.317 286.455 342.54 284.824 340.618C282.043 342.696 278.029 347.342 275.46 349.962L257.112 368.553L277.234 388.693C279.911 391.356 286.128 397.226 288.299 400.023C289.926 398.859 292.203 396.789 294.055 396.834L294.709 397.167C295.244 399.618 295.075 406.571 295.076 409.379L295.071 431.155C295.072 441.781 295.357 448.177 307.209 448.879C318.723 449.102 330.37 449.004 341.888 449.004L436.288 448.988C456.872 449.018 461.129 451.062 461.006 426.669L460.998 322.191C461.025 301.946 464.605 295.841 440.296 295.876L404.891 295.87C403.375 295.869 399.258 295.745 397.933 295.883C391.16 294.769 393.136 287.306 393.149 281.633L393.153 262.464Z"/></svg>