<?xml version="1.0" encoding="utf-8" ?><svg xmlns="http://www.w3.org/2000/svg" xmlns:xlink="http://www.w3.org/1999/xlink" width="512" height="512" viewBox="0 0 512 512"><path fill="#386641" d="M302.251 101.32C302.244 99.063 302.435 95.0296 302.233 92.8783C299.305 61.8356 339.777 48.3056 354.615 76.4467C358.434 83.6898 357.482 92.9488 357.455 101.32C368.977 101.312 382.447 100.926 393.892 101.906C407.07 103.035 405.968 120.704 405.968 129.743L405.966 152.816C418.053 152.801 432.179 150.87 441.359 160.131C452.616 171.488 453.077 189.39 441.708 200.872C431.13 211.555 419.524 209.039 405.966 209.244C405.964 226.802 406.157 244.715 405.966 262.236C408.184 262.154 410.889 262.027 413.078 262.236L413.086 386.831C413.097 415.112 411.546 412.769 386.478 412.77L267.933 412.749C260.117 412.716 261.75 411.306 258.974 406.757L215.224 406.757C214 415.874 217.059 425.802 213.364 434.931C210.76 441.363 201.857 450.744 194.427 449.369C182.34 453.371 171.5 451.574 162.17 442.495C152.008 432.606 153.724 419.703 153.753 406.757L128.554 406.767C108.233 406.785 105.504 405.737 105.553 385.028L105.565 359.766C93.4473 359.713 80.6825 361.923 71.1722 352.64C59.8598 341.599 59.1264 324.163 70.0916 312.547C80.1458 301.896 92.3883 304.541 105.565 304.276C105.723 299.383 105.577 293.607 105.575 288.643L105.565 258.016C99.7604 255.401 95.6963 250.17 95.7081 243.621L95.733 128.472C95.7191 101.333 98.2625 101.273 126.786 101.314L255.421 101.319C270.529 101.32 287.232 101.682 302.251 101.32ZM79.7453 350.884C79.538 350.214 78.1951 348.784 77.6829 348.141C66.8192 334.487 76.2241 314.78 95.9246 315.499C119.812 316.37 116.759 314.961 116.734 294.293L116.717 263.791C128.456 263.418 142.602 263.785 154.54 263.791L154.54 258.926L111.796 258.926L111.805 291.016C111.806 294.443 113.099 307.085 110.677 309.409C105.311 314.559 83.7892 304.057 72.6773 319.396C65.2978 329.582 68.2863 344.932 79.7453 350.884ZM258.974 107.672C259.219 111.823 258.98 118.156 258.978 122.523L258.974 152.816C260.462 152.805 262.444 152.736 263.889 152.816C264.055 151.712 263.905 142.89 263.904 141.235L263.889 112.321C280.169 112.313 296.996 112.598 313.211 112.321C313.179 98.7313 309.764 80.4899 324.349 73.7335C337.647 67.573 340.988 75.1801 347.167 76.1957C341.135 66.7957 327.642 64.8056 318.457 70.771C305.058 79.4734 309.133 94.2181 308.502 107.672L258.974 107.672ZM355.952 112.321L388.617 112.332C390.074 112.334 397.331 112.6 398.225 112.321C394.073 105.908 384.751 107.651 377.663 107.658L355.952 107.672L355.952 112.321ZM307.588 254.808C307.255 268.317 305.244 283.059 318.145 291.15C316.942 287.836 313.678 284.626 312.854 280.295C310.963 270.366 316.263 257.542 307.588 254.808ZM159.993 406.757C159.938 419.104 158.097 434.049 171.029 440.961C170.622 440.091 169.749 439.306 169.181 438.525C161.473 427.917 169.28 402.39 159.993 406.757ZM286.541 157.89C306.43 175.717 300.09 208.614 274.182 209.215C269.075 209.328 264.04 209.258 258.974 209.244L258.974 252.438C260.576 252.444 262.299 252.483 263.889 252.438C263.892 239.591 263.722 226.45 263.889 213.638C265.791 213.667 269.193 213.561 271.038 213.731C312.628 217.549 308.047 162.742 286.541 157.89ZM116.717 360.645C114.995 359.162 113.991 358.733 111.796 358.22C111.581 360.54 111.761 363.696 111.783 366.099L111.798 379.429C111.791 386.898 109.241 397.154 116.717 400.872C116.394 396.325 116.704 392.072 116.716 387.523L116.717 360.645ZM404.977 163.748C413.706 163.753 422.534 163.741 431.267 163.526C433.498 163.471 435.768 165.379 437.675 165.469C430.329 156.577 415.437 159.159 404.977 159.004C404.933 160.658 404.887 162.093 404.977 163.748ZM252.588 213.638C252.673 212.454 252.601 210.492 252.588 209.244C242.033 209.467 236.017 210.286 226.251 205.873C228.619 212.339 247.184 213.659 252.588 213.638ZM168.896 281.98C168.669 281.23 167.714 279.411 167.321 278.599C164.575 272.922 165.469 262.276 165.556 256.073C165.976 241.787 163.262 222.57 184.547 221.712C192.537 221.391 195.211 222.924 200.874 228.094L201.419 228.004C189.185 208.079 159.92 215.881 160.783 242.924C161.213 256.382 157.415 272.559 168.896 281.98ZM228.627 199.389C228.554 199.145 228.549 199.055 228.398 198.845C218.707 185.606 224.406 164.555 242.446 163.848C252.931 163.662 263.461 163.77 273.948 163.736C282.349 163.709 282.573 165.919 288.924 169.182C279.572 157.135 270.888 158.844 256.98 159.011C247.09 159.129 235.897 157.299 227.638 163.919C216.551 172.644 216.27 192.195 228.627 199.389Z"/><path fill="#DAEE87" fill-opacity="0.80000001" d="M405.966 262.236C408.184 262.154 410.889 262.027 413.078 262.236L413.086 386.831C413.097 415.112 411.546 412.769 386.478 412.77L267.933 412.749C260.117 412.716 261.75 411.306 258.974 406.757L390.371 406.793C408.369 406.768 405.979 388.327 405.975 376.362L405.965 289.48C405.966 280.914 406.273 270.603 405.966 262.236Z"/><path fill="#A7C957" fill-opacity="0.80000001" d="M211.006 406.757L215.224 406.757C214 415.874 217.059 425.802 213.364 434.931C210.76 441.363 201.857 450.744 194.427 449.369C212.9 440.194 211.046 424.287 211.006 406.757Z"/><path fill="#A7C957" fill-opacity="0.80000001" d="M211.006 258.926C223.107 258.069 240.327 258.673 252.588 258.926L252.588 263.791L252.578 293.955C252.576 298.268 252.341 304.899 252.588 308.957C253.973 310.077 254.989 310.734 256.841 310.763C268.841 310.73 281.689 309.635 288.924 321.261C298.256 333.521 290.499 352.121 275.216 354.1C270.209 354.748 253.172 352.047 252.747 357.779C252.397 362.513 252.568 367.405 252.579 372.166L252.588 400.872L221.564 400.867C215.292 400.86 204.823 398.05 204.798 405.588C204.756 418.206 207.304 431.231 196.681 440.275C190.732 445.339 173.313 447.459 171.029 440.961C170.622 440.091 169.749 439.306 169.181 438.525C161.473 427.917 169.28 402.39 159.993 406.757C160.223 398.769 156.271 400.711 150.305 400.809C142.056 400.945 123.993 399.689 116.717 400.872C116.394 396.325 116.704 392.072 116.716 387.523L116.717 360.645C114.995 359.162 113.991 358.733 111.796 358.22C110.251 348.327 90.471 357.35 79.7453 350.884C79.538 350.214 78.1951 348.784 77.6829 348.141C66.8192 334.487 76.2241 314.78 95.9246 315.499C119.812 316.37 116.759 314.961 116.734 294.293L116.717 263.791C128.456 263.418 142.602 263.785 154.54 263.791C154.516 276.672 160.034 284.868 171.029 291.15C182.825 295.874 195.153 294.194 204.221 284.607C211.383 277.035 211.44 268.804 211.006 258.926Z"/><path fill="#DAEE87" fill-opacity="0.80000001" d="M211.006 258.926C223.107 258.069 240.327 258.673 252.588 258.926L252.588 263.791L216.229 263.791C214.74 276.785 216.481 283.135 203.544 292.764C202.542 293.401 200.772 294.588 199.786 295.074C190.108 298.023 185.502 298.457 175.746 294.366C174.281 293.751 171.614 292.628 171.029 291.15C182.825 295.874 195.153 294.194 204.221 284.607C211.383 277.035 211.44 268.804 211.006 258.926Z"/><path fill="#DAEE87" fill-opacity="0.80000001" d="M256.841 310.763C268.841 310.73 281.689 309.635 288.924 321.261C287.311 321.159 282.525 317.026 279.506 316.429C273.864 315.312 261.26 316.226 258.342 314.821C257.643 314.484 257.057 311.667 256.841 310.763Z"/><path fill="#A7C957" fill-opacity="0.80000001" d="M313.211 112.321C313.179 98.7313 309.764 80.4899 324.349 73.7335C337.647 67.573 340.988 75.1801 347.167 76.1957C351.836 81.7173 351.393 89.3091 351.391 95.9761L351.373 107.672L355.952 107.672L355.952 112.321L388.617 112.332C390.074 112.334 397.331 112.6 398.225 112.321C400.642 115.38 399.3 152.115 399.485 159.004C400.988 159.031 403.733 158.886 404.977 159.004C404.933 160.658 404.887 162.093 404.977 163.748C413.706 163.753 422.534 163.741 431.267 163.526C433.498 163.471 435.768 165.379 437.675 165.469C450.341 179.379 441.519 201.981 422.589 203.013C415.105 203.421 407.343 202.682 399.931 203.08C399.692 219.105 399.819 236.359 399.931 252.438C394.155 252.436 353.94 251.932 351.866 252.844C347.276 258.192 358.472 291.844 330.94 294.098C327.487 294.381 320.754 293.656 318.145 291.15C316.942 287.836 313.678 284.626 312.854 280.295C310.963 270.366 316.263 257.542 307.588 254.808C307.124 253.59 306.317 253.157 305.258 252.438L263.889 252.438C263.892 239.591 263.722 226.45 263.889 213.638C265.791 213.667 269.193 213.561 271.038 213.731C312.628 217.549 308.047 162.742 286.541 157.89C277.13 152.172 275.096 152.673 263.889 152.816C264.055 151.712 263.905 142.89 263.904 141.235L263.889 112.321C280.169 112.313 296.996 112.598 313.211 112.321Z"/><path fill="#6A994E" fill-opacity="0.80000001" d="M106.886 251.253C103.091 249.283 102.357 246.222 102.349 242.243L102.356 130.307C102.33 108.718 99.6343 107.634 123.763 107.66L252.588 107.672C252.671 108.944 252.596 110.99 252.588 112.321C252.865 115.652 252.597 121.87 252.593 125.513L252.588 152.816C240.412 152.713 230.489 151.655 221.157 161.078C210.436 171.902 209.701 190.464 220.602 201.401C222.478 203.282 224.519 204.316 226.251 205.873C228.619 212.339 247.184 213.659 252.588 213.638L252.588 252.438L228.287 252.442C224.504 252.443 219.947 252.575 216.229 252.438L211.006 252.438C210.959 238.279 213.259 231.201 203.544 220.12C190.773 208.613 174.469 206.15 161.785 220.134C153.127 229.681 154.532 240.441 154.54 252.438L125.811 252.45C120.596 252.451 111.464 253.092 106.886 251.253Z"/><path fill="#DAEE87" fill-opacity="0.80000001" d="M106.886 251.253C103.091 249.283 102.357 246.222 102.349 242.243L102.356 130.307C102.33 108.718 99.6343 107.634 123.763 107.66L252.588 107.672C252.671 108.944 252.596 110.99 252.588 112.321L128.671 112.306C120.292 112.298 106.82 109.364 106.818 121.123L106.886 251.253Z"/><path fill="#DAEE87" fill-opacity="0.80000001" d="M203.544 220.12C216.03 225.02 216.262 241.713 216.229 252.438L211.006 252.438C210.959 238.279 213.259 231.201 203.544 220.12Z"/><path fill="#324B2E" fill-opacity="0.80000001" d="M356.768 258.926C360.866 258.706 366.87 258.915 371.162 258.917L399.931 258.926C399.876 260.441 399.927 262.252 399.931 263.791L399.94 377.326C399.953 400.001 401.008 400.913 375.376 400.883L262.924 400.816C261.573 400.812 260.353 400.936 258.974 400.872L258.974 360.645C275.166 360.445 288.045 362.241 296.496 345.1C302.602 332.715 297.231 314.787 284.287 308.957C275.527 304.082 274.131 304.778 263.889 304.772L258.974 304.772C258.688 301.921 258.962 293.743 258.965 290.348L258.974 258.926L301.529 258.926L301.529 263.791C301.537 274.32 301.214 284.917 309.799 292.669C310.165 292.999 312.087 294.825 312.242 295.074C324.032 302.377 338.118 302.504 348.62 292.375C358.286 283.052 356.796 271.285 356.768 258.926Z"/><path fill="#DAEE87" fill-opacity="0.80000001" d="M356.768 258.926C360.866 258.706 366.87 258.915 371.162 258.917L399.931 258.926C399.876 260.441 399.927 262.252 399.931 263.791L362.289 263.791C362.448 276.527 362.872 285.529 353.363 295.305C342.747 306.217 328.178 307.945 316.086 298.511C315.069 297.718 312.601 296.289 312.242 295.074C324.032 302.377 338.118 302.504 348.62 292.375C358.286 283.052 356.796 271.285 356.768 258.926Z"/><path fill="#DAEE87" fill-opacity="0.80000001" d="M284.287 308.957C287.341 308.732 291.174 312.213 293.415 314.183C315.762 333.823 300.011 371.175 263.889 364.101L263.889 400.872C262.245 400.792 260.602 400.642 258.974 400.872L258.974 360.645C275.166 360.445 288.045 362.241 296.496 345.1C302.602 332.715 297.231 314.787 284.287 308.957Z"/><path fill="#DAEE87" fill-opacity="0.80000001" d="M258.974 258.926L301.529 258.926L301.529 263.791L263.889 263.791C263.666 277.204 263.89 291.307 263.889 304.772L258.974 304.772C258.688 301.921 258.962 293.743 258.965 290.348L258.974 258.926Z"/><path fill="#A7C957" fill-opacity="0.80000001" d="M228.627 199.389C228.554 199.145 228.549 199.055 228.398 198.845C218.707 185.606 224.406 164.555 242.446 163.848C252.931 163.662 263.461 163.77 273.948 163.736C282.349 163.709 282.573 165.919 288.924 169.182C291.822 178.895 294.375 182.885 289.058 193.297C281.876 207.362 263.864 202.032 250.972 203.104C245.323 203.573 232.667 203.574 228.627 199.389Z"/><path fill="#A7C957" fill-opacity="0.80000001" d="M168.896 281.98C168.669 281.23 167.714 279.411 167.321 278.599C164.575 272.922 165.469 262.276 165.556 256.073C165.976 241.787 163.262 222.57 184.547 221.712C192.537 221.391 195.211 222.924 200.874 228.094L201.419 228.004C206.57 235.085 205.606 261.822 204.527 270.244C202.342 287.291 176.944 292.218 168.896 281.98Z"/></svg>