<?xml version="1.0" encoding="utf-8" ?><svg xmlns="http://www.w3.org/2000/svg" xmlns:xlink="http://www.w3.org/1999/xlink" width="512" height="512" viewBox="0 0 512 512"><path fill="#386641" d="M193.579 160.804C216.321 153.577 241.15 171.283 241.847 194.877C241.939 197.988 241.825 201.117 241.74 204.226C243.302 206.089 245.636 208.279 247.401 210.03C258.296 197.607 267.297 214.041 276.856 223.438L340.365 286.463C344.813 290.84 354.506 300.146 358.164 304.872C360.954 303.221 362.62 302.426 365.786 301.687C397.091 294.375 428.978 314.069 436.233 345.562C437.85 347.169 436.725 349.9 437.348 344.528C443.033 354.758 442.636 368.126 439.94 379.236C436.633 392.864 428.811 385.6 429.248 380.634C421.443 382.821 411.089 368.236 405.42 362.297C400.244 361.373 399.171 361.017 399.002 355.616C398.781 354.163 398.834 353.824 399.002 352.349L388.746 352.349C388.77 374.882 391.293 375.403 367.744 374.786L366.735 374.752C366.813 376.359 366.952 385.35 366.735 386.726C370.04 386.724 373.659 386.644 376.936 386.726C380.925 390.96 400.246 409.621 401.895 413.333C402.611 415.815 415.533 419.814 403.084 426.95C387.038 435.753 364.006 434.739 348.825 424.516C347.884 423.883 346.427 423.223 346.133 422.081L346.464 421.374C317.901 407.11 306.839 374.815 315.133 344.528C312.461 342.842 307.16 336.795 304.638 334.322L236.544 266.706C230.533 260.751 224.481 254.833 218.544 248.805C215.165 245.374 215.404 242.182 218.163 238.459C216.014 236.202 213.978 234.033 211.909 231.703C185.314 234.517 165.19 207.961 174.843 182.808C178.767 184.161 182.005 185.779 186.148 186.979C188.317 183.411 195.943 176.102 199.343 173.297C197.692 169.212 195.422 164.923 193.579 160.804ZM413.145 321.362C399.114 306.256 373.598 305.306 355.562 313.016C356.956 314.575 358.26 315.746 359.99 316.948C375.454 311.843 390.837 310.968 406.098 317.574C407.753 318.29 411.632 321.373 413.145 321.362ZM332.072 399.664C331.455 397.513 329.496 394.343 328.508 392.199C323.33 380.962 322.145 360.6 328.386 349.233C326.654 347.936 324.821 346.876 323.148 345.562C317.128 363.082 320.202 385.207 332.072 399.664ZM360.444 399.664C366.157 399.687 373.254 399.903 378.837 399.664C376.939 397.746 375.16 396.145 373.02 394.489L357.797 394.489C358.596 396.812 358.825 397.767 360.444 399.664ZM406.787 353.769C407.068 354.566 410.641 356.806 411.866 358.163C411.852 349.931 414.551 344.886 406.787 343.839C406.87 346.799 407.062 350.944 406.787 353.769Z"/><path fill="#E5FFBD" fill-opacity="0.80000001" d="M380.4 345.562C386.407 345.423 392.953 345.557 399.002 345.562L399.002 355.616C398.781 354.163 398.834 353.824 399.002 352.349L388.746 352.349C388.77 374.882 391.293 375.403 367.744 374.786L366.735 374.752C366.813 376.359 366.952 385.35 366.735 386.726L361.447 386.726L361.447 367.498C384.946 367.563 380.384 369.723 380.4 345.562Z"/><path fill="#E5FFBD" fill-opacity="0.80000001" d="M401.895 413.333C402.611 415.815 415.533 419.814 403.084 426.95C387.038 435.753 364.006 434.739 348.825 424.516C347.884 423.883 346.427 423.223 346.133 422.081L346.464 421.374C360.556 427.616 375.59 429.377 390.37 423.708C395.806 421.622 400.59 419.705 401.895 413.333Z"/><path fill="#E5FFBD" fill-opacity="0.80000001" d="M437.348 344.528C443.033 354.758 442.636 368.126 439.94 379.236C436.633 392.864 428.811 385.6 429.248 380.634C437.708 374.815 438.07 354.57 436.233 345.562C437.85 347.169 436.725 349.9 437.348 344.528Z"/><path fill="#6A994E" fill-opacity="0.80000001" d="M224.559 243.598C234.531 233.393 245.176 222.7 255.449 212.766C259.106 216.305 262.865 220.548 266.606 224.248L339.579 296.737C344.416 301.537 351.392 307.985 355.562 313.016C356.956 314.575 358.26 315.746 359.99 316.948C375.454 311.843 390.837 310.968 406.098 317.574C407.753 318.29 411.632 321.373 413.145 321.362C427.403 330.82 432.813 356.302 426.075 372.023C421.782 367.792 416.24 362.089 411.866 358.163C411.852 349.931 414.551 344.886 406.787 343.839C406.87 346.799 407.062 350.944 406.787 353.769C406.823 335.395 407.49 337.944 389.658 337.945C368.56 337.946 373.081 337.244 373.02 360.019C369.582 360.005 357.281 359.45 354.915 360.925C352.633 364.698 353.578 387.166 353.908 391.74C354.008 393.122 356.609 394.199 357.797 394.489C358.596 396.812 358.825 397.767 360.444 399.664C366.157 399.687 373.254 399.903 378.837 399.664C382.789 404.305 388.368 409.414 392.701 414.107C373.933 424.149 343.151 417.754 332.072 399.664C331.455 397.513 329.496 394.343 328.508 392.199C323.33 380.962 322.145 360.6 328.386 349.233C326.654 347.936 324.821 346.876 323.148 345.562C323.295 344.665 323.625 342.684 322.926 341.97C291.847 310.229 259.892 279.336 228.502 247.894C227.084 246.473 225.817 245.173 224.559 243.598Z"/><path fill="#6A994E" fill-opacity="0.80000001" d="M205.444 166.891C213.718 167.987 224.25 172.293 228.745 179.771C234.322 184.993 234.687 199.303 232.693 205.823C235.614 208.702 238.931 212.472 241.74 215.528C235.751 221.619 229.429 227.494 223.498 233.605C220.69 230.786 216.322 226.076 213.194 223.988C195.86 224.9 182.855 215.799 179.864 197.82L179.864 194.291C183.344 194.41 184.194 194.825 187.542 195.971C188.246 195.573 189.195 194.8 189.868 194.291C190.863 191.935 205.653 177.436 208.464 174.807C208.534 173.542 207.854 171.806 207.443 170.566C206.784 169.375 206.047 168.101 205.444 166.891Z"/><path fill="#E5FFBD" fill-opacity="0.80000001" d="M208.464 174.807L210.343 179.771L198.977 190.895C197.07 192.785 193.791 196.227 191.797 197.82C190.935 197.921 190.576 197.941 189.868 198.578C189.283 197.648 188.595 196.344 187.542 195.971C188.246 195.573 189.195 194.8 189.868 194.291C190.863 191.935 205.653 177.436 208.464 174.807Z"/><path fill="#6A994E" fill-opacity="0.80000001" d="M187.542 195.971C188.246 195.573 189.195 194.8 189.868 194.291C190.532 195.94 190.622 196.478 191.797 197.82C190.935 197.921 190.576 197.941 189.868 198.578C189.283 197.648 188.595 196.344 187.542 195.971Z"/><path fill="#E5FFBD" fill-opacity="0.80000001" d="M205.444 166.891C213.718 167.987 224.25 172.293 228.745 179.771C227.429 179.484 223.073 175.832 221.25 174.964C216.63 172.765 212.397 171.605 207.443 170.566C206.784 169.375 206.047 168.101 205.444 166.891Z"/><path fill="#E5FFBD" fill-opacity="0.80000001" d="M179.864 194.291C183.344 194.41 184.194 194.825 187.542 195.971C188.595 196.344 189.283 197.648 189.868 198.578C190.654 202.62 184.526 198.338 180.248 197.862L179.864 197.82L179.864 194.291Z"/><path fill="#A7C957" fill-opacity="0.80000001" d="M85.8725 145.456C92.6304 145.111 102.218 145.454 109.245 145.455L302.021 145.456C301.931 155.29 303.788 164.352 307.996 173.297C298.803 183.841 286.036 193.502 277.692 204.226C271.717 195.85 266.42 191.536 256.301 190.47C252.31 172.26 244.049 159.013 226.668 150.503C220.192 147.333 219.948 149.19 216.941 154.689C203.513 150.479 174.881 151.291 191.797 171.549C189.245 173.885 186.739 176.781 184.551 178.757C176.935 175.888 170.921 172.782 167.409 183.248C165.327 189.45 164.872 198.709 166.589 205.016C173.234 224.804 187.097 239.482 209.632 238.459C209.182 241.98 209.206 242.91 209.632 246.427C210.91 251.411 217.638 257.182 221.494 260.766C215.249 265.911 185.926 298.917 182.112 297.096C164.247 292.454 147.637 291.788 130.917 301.771C128.484 303.224 122.776 307.12 120.986 309.174C108.568 315.869 99.7395 341.581 99.8218 354.999C99.8425 358.365 100.188 361.379 100.031 364.827C94.8967 364.846 89.7095 364.78 85.8725 360.757C85.9965 360.357 85.9896 360.501 85.9867 360.157L85.8725 145.456Z"/><path fill="#386641" d="M209.632 246.427C208.807 246.977 205.636 246.379 204.528 246.325C174.896 244.796 148.68 206.198 166.589 205.016C173.234 224.804 187.097 239.482 209.632 238.459C209.182 241.98 209.206 242.91 209.632 246.427Z"/><path fill="#386641" d="M315.133 175.655C313.558 170.696 311.304 165.558 310.199 160.463C300.092 113.839 343.203 74.6354 389.27 85.9937C397.297 87.9728 397.767 89.3918 399.002 97.2531C400.692 99.3497 402.787 101.208 404.229 103.036C398.851 109.653 371.629 136.875 369.061 137.346L367.654 137.346C367.686 141.216 367.552 145.181 367.654 149.014C371.152 152.681 375.211 156.215 378.837 160.003C384.477 160.009 391.244 160.199 396.792 160.003C401.058 155.17 418.395 135.425 424.845 135.447C435.263 135.481 433.924 138.467 435.511 148.31C444.234 149.411 442.499 164.465 441.642 170.866C437.947 198.449 410.947 222.724 382.448 218.478C379.16 217.988 370.422 216.127 368.005 213.707L367.654 212.766C365.588 212.257 361.879 210.951 359.99 210.03C351.842 215.826 329.137 239.309 322.249 247.324C323.859 249.206 325.086 250.35 326.884 252.018L349.163 229.541C353.059 225.641 357.851 221.169 361.447 217.135C362.954 217.59 368.04 219.458 369.061 219.634C374.106 219.42 372.313 225.493 372.319 230.324L372.395 293.478C371.697 294.409 369.644 294.15 368.572 293.987C365.501 294.939 363.155 295.618 359.99 296.146C354.731 291.473 351.26 287.735 346.409 282.858L272.316 209.148C265.394 202.171 259.833 194.455 248.722 199.827C249.371 178.065 236.984 162.114 216.941 154.689C219.948 149.19 220.192 147.333 226.668 150.503C244.049 159.013 252.31 172.26 256.301 190.47C266.42 191.536 271.717 195.85 277.692 204.226C279.898 205.598 281.137 207.082 282.909 208.934C292.23 198.122 304.936 185.982 315.133 175.655ZM288.469 214.493C290.239 216.02 291.292 217.036 292.888 218.743C301.575 207.888 315.165 196.136 325.173 185.787C325.143 184.548 330.041 179.778 330.376 178.598L329.594 178.565C328.418 176.992 327.473 174.509 328.386 172.651C306.597 131.501 343.423 88.6728 388.746 98.7955C389.803 97.0614 390.224 96.4061 391.631 94.9601C339.757 77.2563 295.912 135.963 325.173 176.446C316.582 184.613 295.133 205.107 288.469 214.493ZM355.011 129.251L355.011 154.689C358.669 157.112 374.129 172.744 376.936 176.446C386.357 168.712 392.849 175.292 402.095 171.763C405.539 170.449 421.363 152.596 427.545 148.773L427.755 148.31C427.447 147.041 426.669 143.593 425.573 142.922C420.983 144.49 405.232 164.02 399.002 167.76C391.527 168.006 383.859 166.746 376.936 169.392C371.151 163.988 365.536 158.172 359.99 152.52C359.635 146.249 359.972 135.841 359.99 129.251C358.245 129.092 356.745 128.875 355.011 129.251Z"/><path fill="#6A994E" fill-opacity="0.80000001" d="M369.061 219.634C374.106 219.42 372.313 225.493 372.319 230.324L372.395 293.478C371.697 294.409 369.644 294.15 368.572 293.987C367.416 292.928 366.709 292.481 365.972 291.044C363.493 288.751 359.58 285.675 357.797 282.987L357.797 281.305L357.797 231.703C359.869 228.992 363.1 225.837 365.972 223.988C366.999 221.575 368.746 220.769 369.061 219.634Z"/><path fill="#6A994E" fill-opacity="0.80000001" d="M369.061 219.634C374.106 219.42 372.313 225.493 372.319 230.324L372.395 293.478C371.697 294.409 369.644 294.15 368.572 293.987C367.416 292.928 366.709 292.481 365.972 291.044C366.167 287.554 365.994 283.316 365.986 279.738L365.979 236.051C365.987 232.288 366.152 227.671 365.972 223.988C366.999 221.575 368.746 220.769 369.061 219.634Z"/><path fill="#6A994E" fill-opacity="0.80000001" d="M435.511 148.31C444.234 149.411 442.499 164.465 441.642 170.866C437.947 198.449 410.947 222.724 382.448 218.478C379.16 217.988 370.422 216.127 368.005 213.707L367.654 212.766C368.848 212.525 371.85 212.557 373.163 212.689C412.347 216.65 437.062 185.243 435.511 148.31Z"/><path fill="#A7C957" fill-opacity="0.80000001" d="M357.797 231.703L357.797 281.305L357.797 282.987C356.963 282.256 355.799 280.929 355.011 280.082C350.495 277.072 335.477 261.292 332.072 257.316C337.062 251.192 351.796 236.871 357.797 231.703Z"/><path fill="#A7C957" fill-opacity="0.80000001" d="M357.797 278.008C357.746 279.032 357.62 280.325 357.797 281.305L357.797 282.987C356.963 282.256 355.799 280.929 355.011 280.082C356.747 280.09 356.831 279.369 357.797 278.008Z"/><path fill="#6A994E" fill-opacity="0.80000001" d="M399.002 97.2531C400.692 99.3497 402.787 101.208 404.229 103.036C398.851 109.653 371.629 136.875 369.061 137.346L367.654 137.346C367.72 135.483 367.273 131.866 367.654 130.462C370.471 128.262 376.4 121.791 379.264 118.92L390.294 107.848C393.08 105.044 397.881 100.916 399.002 97.2531Z"/><path fill="#A7C957" fill-opacity="0.80000001" d="M367.654 130.462C369.918 131.367 368.985 135.294 369.061 137.346L367.654 137.346C367.72 135.483 367.273 131.866 367.654 130.462Z"/><path fill="#6A994E" fill-opacity="0.80000001" d="M328.386 172.651C306.597 131.501 343.423 88.6728 388.746 98.7955C383.172 102.77 360.27 126.729 359.99 129.251C358.245 129.092 356.745 128.875 355.011 129.251L355.011 154.689C358.669 157.112 374.129 172.744 376.936 176.446C386.357 168.712 392.849 175.292 402.095 171.763C405.539 170.449 421.363 152.596 427.545 148.773L427.755 148.31C427.742 152.321 427.993 156.905 427.629 160.764C424.358 195.41 387.365 213.754 356.802 201.279C349.467 209.519 340.357 218.082 332.503 225.992L321.981 236.723C320.387 238.36 318.126 240.826 316.502 242.286C308.88 234.302 300.708 226.608 292.888 218.743C301.575 207.888 315.165 196.136 325.173 185.787C325.143 184.548 330.041 179.778 330.376 178.598L329.594 178.565C328.418 176.992 327.473 174.509 328.386 172.651Z"/><path fill="#E5FFBD" fill-opacity="0.80000001" d="M325.173 185.787C325.143 184.548 330.041 179.778 330.376 178.598L329.594 178.565C328.418 176.992 327.473 174.509 328.386 172.651C329.827 174.649 331.378 176.727 332.756 178.757C331.282 180.141 326.539 184.961 325.173 185.787Z"/><path fill="#6A994E" fill-opacity="0.80000001" d="M102.151 372.752C71.8981 371.036 73.2307 358.643 73.2394 331.837L73.2177 114.096C73.1629 98.2747 75.6578 83.2662 96.257 83.2649L324.306 83.233C328.955 83.2231 334.604 81.9524 338.185 85.3595C327.412 93.0724 327.607 91.0235 314.311 91.0076L97.9324 90.9653C81.1674 90.9637 80.6558 102.242 80.7258 115.621L80.7484 132.77C82.5375 132.699 84.0797 132.723 85.8725 132.77L85.8526 115.947C85.821 99.3776 87.3648 96.6888 104.355 96.6696L324.246 96.6745C309.412 107.986 309.267 118.757 303.256 132.77C302.726 135.468 302.376 137.975 302.021 140.695L80.7484 140.695L80.7292 343.374C80.716 350.615 79.9125 355.479 85.8725 360.757C89.7095 364.78 94.8967 364.846 100.031 364.827C101.012 367.724 101.481 369.773 102.151 372.752Z"/><path fill="#386641" d="M102.151 372.752C71.8981 371.036 73.2307 358.643 73.2394 331.837L73.2177 114.096C73.1629 98.2747 75.6578 83.2662 96.257 83.2649L324.306 83.233C328.955 83.2231 334.604 81.9524 338.185 85.3595C327.412 93.0724 327.607 91.0235 314.311 91.0076L97.9324 90.9653C81.1674 90.9637 80.6558 102.242 80.7258 115.621L80.7484 132.77C82.5375 132.699 84.0797 132.723 85.8725 132.77L279.246 132.772C286.833 132.773 295.789 133.005 303.256 132.77C302.726 135.468 302.376 137.975 302.021 140.695L80.7484 140.695L80.7292 343.374C80.716 350.615 79.9125 355.479 85.8725 360.757C89.7095 364.78 94.8967 364.846 100.031 364.827C101.012 367.724 101.481 369.773 102.151 372.752Z"/><path fill="#386641" d="M97.6713 116.759C88.0153 112.237 101.567 99.7411 109.833 107.051C125.502 114.102 105.436 131.167 97.6713 116.759Z"/><path fill="#E5FFBD" fill-opacity="0.80000001" d="M109.833 107.051C125.502 114.102 105.436 131.167 97.6713 116.759C104.037 116.88 114.648 117.174 109.833 107.051Z"/><path fill="#386641" d="M120.986 116.759C112.187 108.771 127.382 101.375 133.9 107.051C147.848 114.089 131.953 131.173 120.986 116.759Z"/><path fill="#E5FFBD" fill-opacity="0.80000001" d="M133.9 107.051C147.848 114.089 131.953 131.173 120.986 116.759C127.579 116.933 138.619 117.768 133.9 107.051Z"/><path fill="#386641" d="M142.434 111.703C144.035 103.39 156.381 104.129 157.782 107.051C171.121 110.5 156.963 132.839 145.506 116.759C143.321 115.421 143.047 114.065 142.434 111.703Z"/><path fill="#E5FFBD" fill-opacity="0.80000001" d="M157.782 107.051C171.121 110.5 156.963 132.839 145.506 116.759C153.024 116.603 160.62 118.261 157.782 107.051Z"/><path fill="#386641" d="M169.797 116.759C159.63 108.925 176.984 101.134 182.112 107.051C194.816 110.889 180.624 132.928 169.797 116.759Z"/><path fill="#E5FFBD" fill-opacity="0.80000001" d="M182.112 107.051C194.816 110.889 180.624 132.928 169.797 116.759C176.779 117.094 185.823 117.292 182.112 107.051Z"/><path fill="#6A994E" fill-opacity="0.80000001" d="M225.738 265.588L231.427 271.359C218.439 282.828 204.42 298.321 192.061 310.787C185.868 317.033 186.022 314.185 179.478 311.636C144.798 298.125 109.846 326.202 115.498 363.724C117.302 361.983 119.396 360.067 120.986 358.163C118.559 345.983 125.532 333.402 134.009 325.12C159.531 300.183 183.015 324.68 191.755 319.268C195.427 316.363 199.033 311.951 202.477 308.543L235.497 275.421C239.949 279.026 245.093 284.497 249.121 288.631L261.806 301.426C263.693 303.278 265.047 304.596 266.699 306.69C254.229 321.862 237.391 334.575 224.559 349.233C228.585 358.882 229.091 363.549 228.745 373.943C232.815 373.537 234.026 374.901 235.497 372.023L235.62 372.79C236.41 373.12 237.573 372.827 238.618 372.752C239.329 411.981 199.828 445.536 161.482 428.372C162.844 427.656 165.037 427.296 166.567 427.119L166.417 426.81C164.904 426.569 161.716 426.44 160.582 425.583L160.527 425.358C138.152 418.715 142.429 412.463 154.553 399.914C161.576 392.645 170.84 384.88 177.248 377.388L177.475 377.121C177.606 366.883 177.059 372.332 174.338 369.708C167.519 363.143 159.374 356.955 157.782 347.7C152.839 347.592 147.396 347.662 142.434 347.7C134.578 355.308 127.21 363.564 119.143 370.953C113.586 376.042 108.613 369.948 107.557 364.049C103.904 343.661 111.165 332.266 121.909 317.151L122.051 316.948C142.979 299.545 159.638 296.678 184.551 304.872C185.183 305.477 185.388 305.541 186.148 305.925C198.534 293.139 214.533 278.661 225.738 265.588ZM166.589 351.07C170.352 355.063 175.391 359.783 178.828 363.724C185.919 364.183 184.076 366.924 184.568 372.282C185.589 383.416 181.679 382.856 174.877 390.169C168.103 397.451 158.337 405.418 152.172 413.333C154.459 414.069 155.598 414.589 157.782 415.639C165.44 405.655 180.094 394.659 189.112 384.024C190.218 382.719 190.218 371.627 189.471 369.888C188.042 366.561 167.952 346.266 164.615 344.528C165.547 346.672 166.141 348.773 166.589 351.07Z"/><path fill="#386641" d="M225.738 265.588L231.427 271.359C218.439 282.828 204.42 298.321 192.061 310.787C185.868 317.033 186.022 314.185 179.478 311.636C144.798 298.125 109.846 326.202 115.498 363.724C117.302 361.983 119.396 360.067 120.986 358.163C129.119 350.327 134.81 340.072 146.286 340.716C153.514 341.122 158.714 339.189 164.615 344.528C165.547 346.672 166.141 348.773 166.589 351.07C170.352 355.063 175.391 359.783 178.828 363.724C185.919 364.183 184.076 366.924 184.568 372.282C185.589 383.416 181.679 382.856 174.877 390.169C168.103 397.451 158.337 405.418 152.172 413.333C154.459 414.069 155.598 414.589 157.782 415.639C192.346 431.532 232.716 390.788 217.916 354.522C217.114 352.313 214.653 348.597 216.611 346.484C231.052 330.897 246.871 316.508 261.806 301.426C263.693 303.278 265.047 304.596 266.699 306.69C254.229 321.862 237.391 334.575 224.559 349.233C228.585 358.882 229.091 363.549 228.745 373.943C232.815 373.537 234.026 374.901 235.497 372.023L235.62 372.79C236.41 373.12 237.573 372.827 238.618 372.752C239.329 411.981 199.828 445.536 161.482 428.372C162.844 427.656 165.037 427.296 166.567 427.119L166.417 426.81C164.904 426.569 161.716 426.44 160.582 425.583L160.527 425.358C138.152 418.715 142.429 412.463 154.553 399.914C161.576 392.645 170.84 384.88 177.248 377.388L177.475 377.121C177.606 366.883 177.059 372.332 174.338 369.708C167.519 363.143 159.374 356.955 157.782 347.7C152.839 347.592 147.396 347.662 142.434 347.7C134.578 355.308 127.21 363.564 119.143 370.953C113.586 376.042 108.613 369.948 107.557 364.049C103.904 343.661 111.165 332.266 121.909 317.151L122.051 316.948C142.979 299.545 159.638 296.678 184.551 304.872C185.183 305.477 185.388 305.541 186.148 305.925C198.534 293.139 214.533 278.661 225.738 265.588Z"/><path fill="#E5FFBD" fill-opacity="0.80000001" d="M228.745 373.943C232.815 373.537 234.026 374.901 235.497 372.023L235.62 372.79C236.41 373.12 237.573 372.827 238.618 372.752C239.329 411.981 199.828 445.536 161.482 428.372C162.844 427.656 165.037 427.296 166.567 427.119L166.417 426.81C164.904 426.569 161.716 426.44 160.582 425.583L160.527 425.358C161.215 425.389 163.14 425.857 163.894 425.998C198.027 432.386 225.047 406.78 228.745 373.943Z"/><path fill="#A7C957" fill-opacity="0.80000001" d="M271.595 311.148C273.669 313.434 275.335 314.976 277.692 316.948C286.585 326.728 298.557 337.407 307.996 347.037C306.701 353.209 305.932 358.479 305.955 364.827C305.806 367.876 305.843 369.699 305.955 372.752L238.618 372.752C237.573 372.827 236.41 373.12 235.62 372.79L235.497 372.023C236.271 365.46 234.553 357.347 232.693 351.07C235.176 347.317 240.35 342.482 243.626 339.169L259.127 323.688C263.364 319.522 267.593 315.548 271.595 311.148Z"/><path fill="#386641" d="M271.595 311.148C273.669 313.434 275.335 314.976 277.692 316.948C266.622 326.738 250.818 342.592 241.032 353.769C242.244 357.888 242.67 360.465 242.715 364.827L305.955 364.827C305.806 367.876 305.843 369.699 305.955 372.752L238.618 372.752C237.573 372.827 236.41 373.12 235.62 372.79L235.497 372.023C236.271 365.46 234.553 357.347 232.693 351.07C235.176 347.317 240.35 342.482 243.626 339.169L259.127 323.688C263.364 319.522 267.593 315.548 271.595 311.148Z"/><path fill="#386641" d="M146.433 353.769C147.931 353.697 149.695 353.754 151.214 353.769C154.379 358.104 157.981 361.314 160.527 364.827C162.55 366.284 166.632 370.762 168.553 372.752C158.536 372.634 148.442 372.762 138.413 372.752C142.17 377.665 122.141 388.544 122.277 377.349C122.984 375.787 126.11 374.103 127.807 372.752C129.497 370.478 133.331 366.646 135.567 364.827C136.91 362.998 144.601 355.196 146.433 353.769Z"/><path fill="#A7C957" fill-opacity="0.80000001" d="M146.433 353.769C147.931 353.697 149.695 353.754 151.214 353.769C154.379 358.104 157.981 361.314 160.527 364.827C152.358 364.215 143.779 364.84 135.567 364.827C136.91 362.998 144.601 355.196 146.433 353.769Z"/><path fill="#E5FFBD" fill-opacity="0.80000001" d="M138.413 372.752C142.17 377.665 122.141 388.544 122.277 377.349C122.984 375.787 126.11 374.103 127.807 372.752C131.431 372.738 134.774 372.581 138.413 372.752Z"/></svg>